<?xml version="1.0" encoding="UTF-8"?>
<!DOCTYPE svg PUBLIC "-//W3C//DTD SVG 1.1//EN" "http://www.w3.org/Graphics/SVG/1.1/DTD/svg11.dtd">
<svg xmlns="http://www.w3.org/2000/svg" version="1.1" width="192px" height="384px" style="shape-rendering:geometricPrecision; text-rendering:geometricPrecision; image-rendering:optimizeQuality; fill-rule:evenodd; clip-rule:evenodd" xmlns:xlink="http://www.w3.org/1999/xlink">
<g><path shape-rendering="crispEdges" style="opacity:0.2" fill="#000000" d="M 89.5,101.5 C 91.5,101.5 93.5,101.5 95.5,101.5C 95.5,103.5 95.5,105.5 95.5,107.5C 93.5,107.5 91.5,107.5 89.5,107.5C 89.5,105.5 89.5,103.5 89.5,101.5 Z"/></g>
<g><path shape-rendering="crispEdges" style="opacity:0.2" fill="#000000" d="M 101.5,113.5 C 101.5,111.5 101.5,109.5 101.5,107.5C 103.5,107.5 105.5,107.5 107.5,107.5C 107.5,109.5 107.5,111.5 107.5,113.5C 105.5,113.5 103.5,113.5 101.5,113.5 Z"/></g>
<g><path shape-rendering="crispEdges" style="opacity:0.2" fill="#000000" d="M 83.5,113.5 C 85.5,113.5 87.5,113.5 89.5,113.5C 89.5,115.5 89.5,117.5 89.5,119.5C 87.5,119.5 85.5,119.5 83.5,119.5C 83.5,117.5 83.5,115.5 83.5,113.5 Z"/></g>
<g><path shape-rendering="crispEdges" style="opacity:0.2" fill="#000000" d="M 101.5,113.5 C 103.5,113.5 105.5,113.5 107.5,113.5C 107.5,111.5 107.5,109.5 107.5,107.5C 105.5,107.5 103.5,107.5 101.5,107.5C 101.5,109.5 101.5,111.5 101.5,113.5 Z"/></g>
<g><path shape-rendering="crispEdges" style="opacity:0.2" fill="#000000" d="M 65.5,125.5 C 63.5,125.5 61.5,125.5 59.5,125.5C 59.5,123.5 59.5,121.5 59.5,119.5C 61.5,119.5 63.5,119.5 65.5,119.5C 65.5,121.5 65.5,123.5 65.5,125.5 Z"/></g>
<g><path shape-rendering="crispEdges" style="opacity:0.2" fill="#000000" d="M 77.5,125.5 C 75.5,125.5 73.5,125.5 71.5,125.5C 71.5,123.5 71.5,121.5 71.5,119.5C 73.5,119.5 75.5,119.5 77.5,119.5C 77.5,121.5 77.5,123.5 77.5,125.5 Z"/></g>
<g><path shape-rendering="crispEdges" style="opacity:0.2" fill="#000000" d="M 119.5,125.5 C 117.5,125.5 115.5,125.5 113.5,125.5C 113.5,123.5 113.5,121.5 113.5,119.5C 115.5,119.5 117.5,119.5 119.5,119.5C 119.5,121.5 119.5,123.5 119.5,125.5 Z"/></g>
<g><path shape-rendering="crispEdges" style="opacity:0.2" fill="#000000" d="M 125.5,125.5 C 125.5,123.5 125.5,121.5 125.5,119.5C 127.5,119.5 129.5,119.5 131.5,119.5C 131.5,121.5 131.5,123.5 131.5,125.5C 129.5,125.5 127.5,125.5 125.5,125.5 Z"/></g>
<g><path shape-rendering="crispEdges" style="opacity:0.2" fill="#000000" d="M 65.5,125.5 C 67.5,125.5 69.5,125.5 71.5,125.5C 71.5,127.5 71.5,129.5 71.5,131.5C 69.5,131.5 67.5,131.5 65.5,131.5C 65.5,129.5 65.5,127.5 65.5,125.5 Z"/></g>
<g><path shape-rendering="crispEdges" style="opacity:0.2" fill="#000000" d="M 77.5,125.5 C 79.5,125.5 81.5,125.5 83.5,125.5C 83.5,127.5 83.5,129.5 83.5,131.5C 81.5,131.5 79.5,131.5 77.5,131.5C 77.5,129.5 77.5,127.5 77.5,125.5 Z"/></g>
<g><path shape-rendering="crispEdges" style="opacity:0.2" fill="#000000" d="M 113.5,125.5 C 113.5,127.5 113.5,129.5 113.5,131.5C 111.5,131.5 109.5,131.5 107.5,131.5C 107.5,129.5 107.5,127.5 107.5,125.5C 109.5,125.5 111.5,125.5 113.5,125.5 Z"/></g>
<g><path shape-rendering="crispEdges" style="opacity:0.2" fill="#000000" d="M 119.5,125.5 C 121.5,125.5 123.5,125.5 125.5,125.5C 125.5,127.5 125.5,129.5 125.5,131.5C 123.5,131.5 121.5,131.5 119.5,131.5C 119.5,129.5 119.5,127.5 119.5,125.5 Z"/></g>
</svg>
