<?xml version="1.0" encoding="UTF-8"?>
<!DOCTYPE svg PUBLIC "-//W3C//DTD SVG 1.1//EN" "http://www.w3.org/Graphics/SVG/1.1/DTD/svg11.dtd">
<svg xmlns="http://www.w3.org/2000/svg" version="1.1" width="192px" height="384px" style="shape-rendering:geometricPrecision; text-rendering:geometricPrecision; image-rendering:optimizeQuality; fill-rule:evenodd; clip-rule:evenodd" xmlns:xlink="http://www.w3.org/1999/xlink">
<g><path shape-rendering="crispEdges" style="opacity:1" fill="#29150e" d="M 113.5,47.5 C 101.5,47.5 89.5,47.5 77.5,47.5C 77.5,45.5 77.5,43.5 77.5,41.5C 89.5,41.5 101.5,41.5 113.5,41.5C 113.5,43.5 113.5,45.5 113.5,47.5 Z"/></g>
<g><path shape-rendering="crispEdges" style="opacity:1" fill="#29150e" d="M 77.5,47.5 C 77.5,49.5 77.5,51.5 77.5,53.5C 73.5,53.5 69.5,53.5 65.5,53.5C 65.5,51.5 65.5,49.5 65.5,47.5C 69.5,47.5 73.5,47.5 77.5,47.5 Z"/></g>
<g><path shape-rendering="crispEdges" style="opacity:1" fill="#532a1d" d="M 77.5,47.5 C 89.5,47.5 101.5,47.5 113.5,47.5C 113.5,49.5 113.5,51.5 113.5,53.5C 117.5,53.5 121.5,53.5 125.5,53.5C 125.5,55.5 125.5,57.5 125.5,59.5C 127.5,59.5 129.5,59.5 131.5,59.5C 131.5,63.5 131.5,67.5 131.5,71.5C 133.5,71.5 135.5,71.5 137.5,71.5C 137.5,85.5 137.5,99.5 137.5,113.5C 133.5,113.5 129.5,113.5 125.5,113.5C 125.5,109.5 125.5,105.5 125.5,101.5C 127.5,101.5 129.5,101.5 131.5,101.5C 131.5,97.5 131.5,93.5 131.5,89.5C 123.5,89.5 115.5,89.5 107.5,89.5C 107.5,97.5 107.5,105.5 107.5,113.5C 107.5,117.5 107.5,121.5 107.5,125.5C 113.5,125.5 119.5,125.5 125.5,125.5C 125.5,127.5 125.5,129.5 125.5,131.5C 123.5,131.5 121.5,131.5 119.5,131.5C 119.5,133.5 119.5,135.5 119.5,137.5C 117.5,137.5 115.5,137.5 113.5,137.5C 113.5,139.5 113.5,141.5 113.5,143.5C 111.5,143.5 109.5,143.5 107.5,143.5C 105.5,143.5 103.5,143.5 101.5,143.5C 101.5,141.5 101.5,139.5 101.5,137.5C 97.5,137.5 93.5,137.5 89.5,137.5C 89.5,139.5 89.5,141.5 89.5,143.5C 87.5,143.5 85.5,143.5 83.5,143.5C 81.5,143.5 79.5,143.5 77.5,143.5C 77.5,141.5 77.5,139.5 77.5,137.5C 75.5,137.5 73.5,137.5 71.5,137.5C 71.5,135.5 71.5,133.5 71.5,131.5C 69.5,131.5 67.5,131.5 65.5,131.5C 65.5,129.5 65.5,127.5 65.5,125.5C 71.5,125.5 77.5,125.5 83.5,125.5C 83.5,121.5 83.5,117.5 83.5,113.5C 83.5,105.5 83.5,97.5 83.5,89.5C 75.5,89.5 67.5,89.5 59.5,89.5C 59.5,93.5 59.5,97.5 59.5,101.5C 61.5,101.5 63.5,101.5 65.5,101.5C 65.5,105.5 65.5,109.5 65.5,113.5C 61.5,113.5 57.5,113.5 53.5,113.5C 53.5,99.5 53.5,85.5 53.5,71.5C 55.5,71.5 57.5,71.5 59.5,71.5C 59.5,67.5 59.5,63.5 59.5,59.5C 61.5,59.5 63.5,59.5 65.5,59.5C 65.5,57.5 65.5,55.5 65.5,53.5C 69.5,53.5 73.5,53.5 77.5,53.5C 77.5,51.5 77.5,49.5 77.5,47.5 Z"/></g>
<g><path shape-rendering="crispEdges" style="opacity:1" fill="#29150e" d="M 113.5,47.5 C 117.5,47.5 121.5,47.5 125.5,47.5C 125.5,49.5 125.5,51.5 125.5,53.5C 121.5,53.5 117.5,53.5 113.5,53.5C 113.5,51.5 113.5,49.5 113.5,47.5 Z"/></g>
<g><path shape-rendering="crispEdges" style="opacity:1" fill="#29150e" d="M 65.5,53.5 C 65.5,55.5 65.5,57.5 65.5,59.5C 63.5,59.5 61.5,59.5 59.5,59.5C 59.5,57.5 59.5,55.5 59.5,53.5C 61.5,53.5 63.5,53.5 65.5,53.5 Z"/></g>
<g><path shape-rendering="crispEdges" style="opacity:1" fill="#29150e" d="M 125.5,53.5 C 127.5,53.5 129.5,53.5 131.5,53.5C 131.5,55.5 131.5,57.5 131.5,59.5C 131.5,57.5 131.5,55.5 131.5,53.5C 129.5,53.5 127.5,53.5 125.5,53.5 Z"/></g>
<g><path shape-rendering="crispEdges" style="opacity:1" fill="#29150e" d="M 59.5,59.5 C 59.5,63.5 59.5,67.5 59.5,71.5C 57.5,71.5 55.5,71.5 53.5,71.5C 53.5,67.5 53.5,63.5 53.5,59.5C 55.5,59.5 57.5,59.5 59.5,59.5 Z"/></g>
<g><path shape-rendering="crispEdges" style="opacity:1" fill="#29150e" d="M 131.5,59.5 C 133.5,59.5 135.5,59.5 137.5,59.5C 137.5,63.5 137.5,67.5 137.5,71.5C 135.5,71.5 133.5,71.5 131.5,71.5C 131.5,67.5 131.5,63.5 131.5,59.5 Z"/></g>
<g><path shape-rendering="crispEdges" style="opacity:1" fill="#29150e" d="M 53.5,71.5 C 53.5,85.5 53.5,99.5 53.5,113.5C 53.5,115.5 53.5,117.5 53.5,119.5C 49.5,119.5 45.5,119.5 41.5,119.5C 41.5,117.5 41.5,115.5 41.5,113.5C 43.5,113.5 45.5,113.5 47.5,113.5C 47.5,111.5 47.5,109.5 47.5,107.5C 47.5,105.5 47.5,103.5 47.5,101.5C 47.5,99.5 47.5,97.5 47.5,95.5C 45.5,95.5 43.5,95.5 41.5,95.5C 41.5,93.5 41.5,91.5 41.5,89.5C 43.5,89.5 45.5,89.5 47.5,89.5C 47.5,83.5 47.5,77.5 47.5,71.5C 49.5,71.5 51.5,71.5 53.5,71.5 Z"/></g>
<g><path shape-rendering="crispEdges" style="opacity:1" fill="#29150e" d="M 137.5,71.5 C 139.5,71.5 141.5,71.5 143.5,71.5C 143.5,77.5 143.5,83.5 143.5,89.5C 145.5,89.5 147.5,89.5 149.5,89.5C 149.5,91.5 149.5,93.5 149.5,95.5C 147.5,95.5 145.5,95.5 143.5,95.5C 143.5,97.5 143.5,99.5 143.5,101.5C 143.5,103.5 143.5,105.5 143.5,107.5C 143.5,109.5 143.5,111.5 143.5,113.5C 145.5,113.5 147.5,113.5 149.5,113.5C 149.5,115.5 149.5,117.5 149.5,119.5C 145.5,119.5 141.5,119.5 137.5,119.5C 137.5,117.5 137.5,115.5 137.5,113.5C 137.5,99.5 137.5,85.5 137.5,71.5 Z"/></g>
<g><path shape-rendering="crispEdges" style="opacity:1" fill="#3e212e" d="M 83.5,113.5 C 77.5,113.5 71.5,113.5 65.5,113.5C 65.5,109.5 65.5,105.5 65.5,101.5C 63.5,101.5 61.5,101.5 59.5,101.5C 59.5,97.5 59.5,93.5 59.5,89.5C 67.5,89.5 75.5,89.5 83.5,89.5C 83.5,97.5 83.5,105.5 83.5,113.5 Z"/></g>
<g><path shape-rendering="crispEdges" style="opacity:1" fill="#3e212e" d="M 125.5,113.5 C 119.5,113.5 113.5,113.5 107.5,113.5C 107.5,105.5 107.5,97.5 107.5,89.5C 115.5,89.5 123.5,89.5 131.5,89.5C 131.5,93.5 131.5,97.5 131.5,101.5C 129.5,101.5 127.5,101.5 125.5,101.5C 125.5,105.5 125.5,109.5 125.5,113.5 Z"/></g>
<g><path shape-rendering="crispEdges" style="opacity:1" fill="#29150e" d="M 41.5,95.5 C 41.5,97.5 41.5,99.5 41.5,101.5C 41.5,103.5 41.5,105.5 41.5,107.5C 41.5,109.5 41.5,111.5 41.5,113.5C 39.5,113.5 37.5,113.5 35.5,113.5C 35.5,107.5 35.5,101.5 35.5,95.5C 37.5,95.5 39.5,95.5 41.5,95.5 Z"/></g>
<g><path shape-rendering="crispEdges" style="opacity:1" fill="#7a5539" d="M 41.5,95.5 C 43.5,95.5 45.5,95.5 47.5,95.5C 47.5,97.5 47.5,99.5 47.5,101.5C 45.5,101.5 43.5,101.5 41.5,101.5C 41.5,99.5 41.5,97.5 41.5,95.5 Z"/></g>
<g><path shape-rendering="crispEdges" style="opacity:1" fill="#7a5539" d="M 149.5,95.5 C 149.5,97.5 149.5,99.5 149.5,101.5C 147.5,101.5 145.5,101.5 143.5,101.5C 143.5,99.5 143.5,97.5 143.5,95.5C 145.5,95.5 147.5,95.5 149.5,95.5 Z"/></g>
<g><path shape-rendering="crispEdges" style="opacity:1" fill="#29150e" d="M 149.5,95.5 C 151.5,95.5 153.5,95.5 155.5,95.5C 155.5,101.5 155.5,107.5 155.5,113.5C 153.5,113.5 151.5,113.5 149.5,113.5C 149.5,111.5 149.5,109.5 149.5,107.5C 149.5,105.5 149.5,103.5 149.5,101.5C 149.5,99.5 149.5,97.5 149.5,95.5 Z"/></g>
<g><path shape-rendering="crispEdges" style="opacity:1" fill="#532a1d" d="M 41.5,101.5 C 43.5,101.5 45.5,101.5 47.5,101.5C 47.5,103.5 47.5,105.5 47.5,107.5C 45.5,107.5 43.5,107.5 41.5,107.5C 41.5,105.5 41.5,103.5 41.5,101.5 Z"/></g>
<g><path shape-rendering="crispEdges" style="opacity:1" fill="#532a1d" d="M 143.5,101.5 C 145.5,101.5 147.5,101.5 149.5,101.5C 149.5,103.5 149.5,105.5 149.5,107.5C 147.5,107.5 145.5,107.5 143.5,107.5C 143.5,105.5 143.5,103.5 143.5,101.5 Z"/></g>
<g><path shape-rendering="crispEdges" style="opacity:1" fill="#3e212e" d="M 41.5,107.5 C 43.5,107.5 45.5,107.5 47.5,107.5C 47.5,109.5 47.5,111.5 47.5,113.5C 45.5,113.5 43.5,113.5 41.5,113.5C 41.5,111.5 41.5,109.5 41.5,107.5 Z"/></g>
<g><path shape-rendering="crispEdges" style="opacity:1" fill="#3e212e" d="M 143.5,107.5 C 145.5,107.5 147.5,107.5 149.5,107.5C 149.5,109.5 149.5,111.5 149.5,113.5C 147.5,113.5 145.5,113.5 143.5,113.5C 143.5,111.5 143.5,109.5 143.5,107.5 Z"/></g>
<g><path shape-rendering="crispEdges" style="opacity:1" fill="#3e212e" d="M 53.5,113.5 C 57.5,113.5 61.5,113.5 65.5,113.5C 65.5,117.5 65.5,121.5 65.5,125.5C 65.5,127.5 65.5,129.5 65.5,131.5C 63.5,131.5 61.5,131.5 59.5,131.5C 59.5,127.5 59.5,123.5 59.5,119.5C 57.5,119.5 55.5,119.5 53.5,119.5C 53.5,117.5 53.5,115.5 53.5,113.5 Z"/></g>
<g><path shape-rendering="crispEdges" style="opacity:1" fill="#7a5539" d="M 65.5,113.5 C 71.5,113.5 77.5,113.5 83.5,113.5C 83.5,117.5 83.5,121.5 83.5,125.5C 77.5,125.5 71.5,125.5 65.5,125.5C 65.5,121.5 65.5,117.5 65.5,113.5 Z"/></g>
<g><path shape-rendering="crispEdges" style="opacity:1" fill="#7a5539" d="M 107.5,113.5 C 113.5,113.5 119.5,113.5 125.5,113.5C 125.5,117.5 125.5,121.5 125.5,125.5C 119.5,125.5 113.5,125.5 107.5,125.5C 107.5,121.5 107.5,117.5 107.5,113.5 Z"/></g>
<g><path shape-rendering="crispEdges" style="opacity:1" fill="#3e212e" d="M 125.5,113.5 C 129.5,113.5 133.5,113.5 137.5,113.5C 137.5,115.5 137.5,117.5 137.5,119.5C 135.5,119.5 133.5,119.5 131.5,119.5C 131.5,123.5 131.5,127.5 131.5,131.5C 129.5,131.5 127.5,131.5 125.5,131.5C 125.5,129.5 125.5,127.5 125.5,125.5C 125.5,121.5 125.5,117.5 125.5,113.5 Z"/></g>
<g><path shape-rendering="crispEdges" style="opacity:1" fill="#29150e" d="M 53.5,119.5 C 55.5,119.5 57.5,119.5 59.5,119.5C 59.5,123.5 59.5,127.5 59.5,131.5C 57.5,131.5 55.5,131.5 53.5,131.5C 53.5,127.5 53.5,123.5 53.5,119.5 Z"/></g>
<g><path shape-rendering="crispEdges" style="opacity:1" fill="#29150e" d="M 89.5,119.5 C 93.5,119.5 97.5,119.5 101.5,119.5C 101.5,121.5 101.5,123.5 101.5,125.5C 99.5,125.5 97.5,125.5 95.5,125.5C 95.5,127.5 95.5,129.5 95.5,131.5C 93.5,131.5 91.5,131.5 89.5,131.5C 89.5,127.5 89.5,123.5 89.5,119.5 Z"/></g>
<g><path shape-rendering="crispEdges" style="opacity:1" fill="#29150e" d="M 137.5,119.5 C 137.5,123.5 137.5,127.5 137.5,131.5C 135.5,131.5 133.5,131.5 131.5,131.5C 131.5,127.5 131.5,123.5 131.5,119.5C 133.5,119.5 135.5,119.5 137.5,119.5 Z"/></g>
<g><path shape-rendering="crispEdges" style="opacity:1" fill="#29150e" d="M 59.5,131.5 C 61.5,131.5 63.5,131.5 65.5,131.5C 65.5,133.5 65.5,135.5 65.5,137.5C 63.5,137.5 61.5,137.5 59.5,137.5C 59.5,135.5 59.5,133.5 59.5,131.5 Z"/></g>
<g><path shape-rendering="crispEdges" style="opacity:1" fill="#3e212e" d="M 65.5,131.5 C 67.5,131.5 69.5,131.5 71.5,131.5C 71.5,133.5 71.5,135.5 71.5,137.5C 69.5,137.5 67.5,137.5 65.5,137.5C 65.5,135.5 65.5,133.5 65.5,131.5 Z"/></g>
<g><path shape-rendering="crispEdges" style="opacity:1" fill="#3e212e" d="M 125.5,131.5 C 125.5,133.5 125.5,135.5 125.5,137.5C 123.5,137.5 121.5,137.5 119.5,137.5C 119.5,135.5 119.5,133.5 119.5,131.5C 121.5,131.5 123.5,131.5 125.5,131.5 Z"/></g>
<g><path shape-rendering="crispEdges" style="opacity:1" fill="#29150e" d="M 125.5,131.5 C 127.5,131.5 129.5,131.5 131.5,131.5C 131.5,133.5 131.5,135.5 131.5,137.5C 129.5,137.5 127.5,137.5 125.5,137.5C 125.5,135.5 125.5,133.5 125.5,131.5 Z"/></g>
<g><path shape-rendering="crispEdges" style="opacity:1" fill="#29150e" d="M 65.5,137.5 C 67.5,137.5 69.5,137.5 71.5,137.5C 71.5,139.5 71.5,141.5 71.5,143.5C 69.5,143.5 67.5,143.5 65.5,143.5C 65.5,141.5 65.5,139.5 65.5,137.5 Z"/></g>
<g><path shape-rendering="crispEdges" style="opacity:1" fill="#3e212e" d="M 71.5,137.5 C 73.5,137.5 75.5,137.5 77.5,137.5C 77.5,139.5 77.5,141.5 77.5,143.5C 75.5,143.5 73.5,143.5 71.5,143.5C 71.5,141.5 71.5,139.5 71.5,137.5 Z"/></g>
<g><path shape-rendering="crispEdges" style="opacity:1" fill="#29150e" d="M 101.5,143.5 C 97.5,143.5 93.5,143.5 89.5,143.5C 89.5,141.5 89.5,139.5 89.5,137.5C 93.5,137.5 97.5,137.5 101.5,137.5C 101.5,139.5 101.5,141.5 101.5,143.5 Z"/></g>
<g><path shape-rendering="crispEdges" style="opacity:1" fill="#3e212e" d="M 119.5,137.5 C 119.5,139.5 119.5,141.5 119.5,143.5C 117.5,143.5 115.5,143.5 113.5,143.5C 113.5,141.5 113.5,139.5 113.5,137.5C 115.5,137.5 117.5,137.5 119.5,137.5 Z"/></g>
<g><path shape-rendering="crispEdges" style="opacity:1" fill="#29150e" d="M 119.5,137.5 C 121.5,137.5 123.5,137.5 125.5,137.5C 125.5,139.5 125.5,141.5 125.5,143.5C 123.5,143.5 121.5,143.5 119.5,143.5C 119.5,141.5 119.5,139.5 119.5,137.5 Z"/></g>
<g><path shape-rendering="crispEdges" style="opacity:1" fill="#29150e" d="M 71.5,143.5 C 73.5,143.5 75.5,143.5 77.5,143.5C 79.5,143.5 81.5,143.5 83.5,143.5C 83.5,145.5 83.5,147.5 83.5,149.5C 85.5,149.5 87.5,149.5 89.5,149.5C 93.5,149.5 97.5,149.5 101.5,149.5C 103.5,149.5 105.5,149.5 107.5,149.5C 107.5,147.5 107.5,145.5 107.5,143.5C 109.5,143.5 111.5,143.5 113.5,143.5C 115.5,143.5 117.5,143.5 119.5,143.5C 119.5,147.5 119.5,151.5 119.5,155.5C 115.5,155.5 111.5,155.5 107.5,155.5C 107.5,157.5 107.5,159.5 107.5,161.5C 105.5,161.5 103.5,161.5 101.5,161.5C 101.5,159.5 101.5,157.5 101.5,155.5C 97.5,155.5 93.5,155.5 89.5,155.5C 89.5,157.5 89.5,159.5 89.5,161.5C 87.5,161.5 85.5,161.5 83.5,161.5C 83.5,159.5 83.5,157.5 83.5,155.5C 79.5,155.5 75.5,155.5 71.5,155.5C 71.5,151.5 71.5,147.5 71.5,143.5 Z"/></g>
<g><path shape-rendering="crispEdges" style="opacity:1" fill="#3e212e" d="M 83.5,143.5 C 85.5,143.5 87.5,143.5 89.5,143.5C 89.5,145.5 89.5,147.5 89.5,149.5C 87.5,149.5 85.5,149.5 83.5,149.5C 83.5,147.5 83.5,145.5 83.5,143.5 Z"/></g>
<g><path shape-rendering="crispEdges" style="opacity:1" fill="#532a1d" d="M 89.5,143.5 C 93.5,143.5 97.5,143.5 101.5,143.5C 101.5,145.5 101.5,147.5 101.5,149.5C 97.5,149.5 93.5,149.5 89.5,149.5C 89.5,147.5 89.5,145.5 89.5,143.5 Z"/></g>
<g><path shape-rendering="crispEdges" style="opacity:1" fill="#3e212e" d="M 101.5,143.5 C 103.5,143.5 105.5,143.5 107.5,143.5C 107.5,145.5 107.5,147.5 107.5,149.5C 105.5,149.5 103.5,149.5 101.5,149.5C 101.5,147.5 101.5,145.5 101.5,143.5 Z"/></g>
<g><path shape-rendering="crispEdges" style="opacity:1" fill="#29150e" d="M 71.5,155.5 C 71.5,157.5 71.5,159.5 71.5,161.5C 69.5,161.5 67.5,161.5 65.5,161.5C 65.5,159.5 65.5,157.5 65.5,155.5C 67.5,155.5 69.5,155.5 71.5,155.5 Z"/></g>
<g><path shape-rendering="crispEdges" style="opacity:1" fill="#3e212e" d="M 71.5,155.5 C 75.5,155.5 79.5,155.5 83.5,155.5C 83.5,157.5 83.5,159.5 83.5,161.5C 79.5,161.5 75.5,161.5 71.5,161.5C 71.5,159.5 71.5,157.5 71.5,155.5 Z"/></g>
<g><path shape-rendering="crispEdges" style="opacity:1" fill="#3e212e" d="M 101.5,161.5 C 97.5,161.5 93.5,161.5 89.5,161.5C 89.5,159.5 89.5,157.5 89.5,155.5C 93.5,155.5 97.5,155.5 101.5,155.5C 101.5,157.5 101.5,159.5 101.5,161.5 Z"/></g>
<g><path shape-rendering="crispEdges" style="opacity:1" fill="#3e212e" d="M 119.5,155.5 C 119.5,157.5 119.5,159.5 119.5,161.5C 115.5,161.5 111.5,161.5 107.5,161.5C 107.5,159.5 107.5,157.5 107.5,155.5C 111.5,155.5 115.5,155.5 119.5,155.5 Z"/></g>
<g><path shape-rendering="crispEdges" style="opacity:1" fill="#29150e" d="M 119.5,155.5 C 121.5,155.5 123.5,155.5 125.5,155.5C 125.5,157.5 125.5,159.5 125.5,161.5C 123.5,161.5 121.5,161.5 119.5,161.5C 119.5,159.5 119.5,157.5 119.5,155.5 Z"/></g>
<g><path shape-rendering="crispEdges" style="opacity:1" fill="#29150e" d="M 65.5,161.5 C 65.5,163.5 65.5,165.5 65.5,167.5C 63.5,167.5 61.5,167.5 59.5,167.5C 59.5,165.5 59.5,163.5 59.5,161.5C 61.5,161.5 63.5,161.5 65.5,161.5 Z"/></g>
<g><path shape-rendering="crispEdges" style="opacity:1" fill="#532a1d" d="M 65.5,161.5 C 67.5,161.5 69.5,161.5 71.5,161.5C 75.5,161.5 79.5,161.5 83.5,161.5C 85.5,161.5 87.5,161.5 89.5,161.5C 93.5,161.5 97.5,161.5 101.5,161.5C 103.5,161.5 105.5,161.5 107.5,161.5C 111.5,161.5 115.5,161.5 119.5,161.5C 121.5,161.5 123.5,161.5 125.5,161.5C 125.5,163.5 125.5,165.5 125.5,167.5C 123.5,167.5 121.5,167.5 119.5,167.5C 119.5,169.5 119.5,171.5 119.5,173.5C 119.5,197.5 119.5,221.5 119.5,245.5C 121.5,245.5 123.5,245.5 125.5,245.5C 125.5,269.5 125.5,293.5 125.5,317.5C 123.5,317.5 121.5,317.5 119.5,317.5C 115.5,317.5 111.5,317.5 107.5,317.5C 107.5,301.5 107.5,285.5 107.5,269.5C 107.5,267.5 107.5,265.5 107.5,263.5C 99.5,263.5 91.5,263.5 83.5,263.5C 83.5,265.5 83.5,267.5 83.5,269.5C 83.5,285.5 83.5,301.5 83.5,317.5C 79.5,317.5 75.5,317.5 71.5,317.5C 69.5,317.5 67.5,317.5 65.5,317.5C 65.5,293.5 65.5,269.5 65.5,245.5C 67.5,245.5 69.5,245.5 71.5,245.5C 71.5,221.5 71.5,197.5 71.5,173.5C 71.5,171.5 71.5,169.5 71.5,167.5C 69.5,167.5 67.5,167.5 65.5,167.5C 65.5,165.5 65.5,163.5 65.5,161.5 Z"/></g>
<g><path shape-rendering="crispEdges" style="opacity:1" fill="#29150e" d="M 125.5,161.5 C 127.5,161.5 129.5,161.5 131.5,161.5C 131.5,163.5 131.5,165.5 131.5,167.5C 129.5,167.5 127.5,167.5 125.5,167.5C 125.5,165.5 125.5,163.5 125.5,161.5 Z"/></g>
<g><path shape-rendering="crispEdges" style="opacity:1" fill="#29150e" d="M 59.5,167.5 C 59.5,169.5 59.5,171.5 59.5,173.5C 59.5,175.5 59.5,177.5 59.5,179.5C 57.5,179.5 55.5,179.5 53.5,179.5C 53.5,175.5 53.5,171.5 53.5,167.5C 55.5,167.5 57.5,167.5 59.5,167.5 Z"/></g>
<g><path shape-rendering="crispEdges" style="opacity:1" fill="#532a1d" d="M 59.5,167.5 C 61.5,167.5 63.5,167.5 65.5,167.5C 65.5,169.5 65.5,171.5 65.5,173.5C 63.5,173.5 61.5,173.5 59.5,173.5C 59.5,171.5 59.5,169.5 59.5,167.5 Z"/></g>
<g><path shape-rendering="crispEdges" style="opacity:1" fill="#3e212e" d="M 65.5,167.5 C 67.5,167.5 69.5,167.5 71.5,167.5C 71.5,169.5 71.5,171.5 71.5,173.5C 69.5,173.5 67.5,173.5 65.5,173.5C 65.5,171.5 65.5,169.5 65.5,167.5 Z"/></g>
<g><path shape-rendering="crispEdges" style="opacity:1" fill="#3e212e" d="M 125.5,167.5 C 125.5,169.5 125.5,171.5 125.5,173.5C 123.5,173.5 121.5,173.5 119.5,173.5C 119.5,171.5 119.5,169.5 119.5,167.5C 121.5,167.5 123.5,167.5 125.5,167.5 Z"/></g>
<g><path shape-rendering="crispEdges" style="opacity:1" fill="#532a1d" d="M 125.5,167.5 C 127.5,167.5 129.5,167.5 131.5,167.5C 131.5,169.5 131.5,171.5 131.5,173.5C 129.5,173.5 127.5,173.5 125.5,173.5C 125.5,171.5 125.5,169.5 125.5,167.5 Z"/></g>
<g><path shape-rendering="crispEdges" style="opacity:1" fill="#29150e" d="M 131.5,167.5 C 133.5,167.5 135.5,167.5 137.5,167.5C 137.5,171.5 137.5,175.5 137.5,179.5C 135.5,179.5 133.5,179.5 131.5,179.5C 131.5,177.5 131.5,175.5 131.5,173.5C 131.5,171.5 131.5,169.5 131.5,167.5 Z"/></g>
<g><path shape-rendering="crispEdges" style="opacity:1" fill="#3e212e" d="M 59.5,173.5 C 61.5,173.5 63.5,173.5 65.5,173.5C 65.5,179.5 65.5,185.5 65.5,191.5C 63.5,191.5 61.5,191.5 59.5,191.5C 59.5,187.5 59.5,183.5 59.5,179.5C 59.5,177.5 59.5,175.5 59.5,173.5 Z"/></g>
<g><path shape-rendering="crispEdges" style="opacity:1" fill="#29150e" d="M 65.5,173.5 C 67.5,173.5 69.5,173.5 71.5,173.5C 71.5,197.5 71.5,221.5 71.5,245.5C 69.5,245.5 67.5,245.5 65.5,245.5C 65.5,235.5 65.5,225.5 65.5,215.5C 63.5,215.5 61.5,215.5 59.5,215.5C 59.5,213.5 59.5,211.5 59.5,209.5C 59.5,203.5 59.5,197.5 59.5,191.5C 61.5,191.5 63.5,191.5 65.5,191.5C 65.5,185.5 65.5,179.5 65.5,173.5 Z"/></g>
<g><path shape-rendering="crispEdges" style="opacity:1" fill="#29150e" d="M 119.5,173.5 C 121.5,173.5 123.5,173.5 125.5,173.5C 125.5,179.5 125.5,185.5 125.5,191.5C 127.5,191.5 129.5,191.5 131.5,191.5C 131.5,197.5 131.5,203.5 131.5,209.5C 131.5,211.5 131.5,213.5 131.5,215.5C 129.5,215.5 127.5,215.5 125.5,215.5C 125.5,225.5 125.5,235.5 125.5,245.5C 123.5,245.5 121.5,245.5 119.5,245.5C 119.5,221.5 119.5,197.5 119.5,173.5 Z"/></g>
<g><path shape-rendering="crispEdges" style="opacity:1" fill="#3e212e" d="M 125.5,173.5 C 127.5,173.5 129.5,173.5 131.5,173.5C 131.5,175.5 131.5,177.5 131.5,179.5C 131.5,183.5 131.5,187.5 131.5,191.5C 129.5,191.5 127.5,191.5 125.5,191.5C 125.5,185.5 125.5,179.5 125.5,173.5 Z"/></g>
<g><path shape-rendering="crispEdges" style="opacity:1" fill="#29150e" d="M 53.5,179.5 C 53.5,189.5 53.5,199.5 53.5,209.5C 51.5,209.5 49.5,209.5 47.5,209.5C 47.5,199.5 47.5,189.5 47.5,179.5C 49.5,179.5 51.5,179.5 53.5,179.5 Z"/></g>
<g><path shape-rendering="crispEdges" style="opacity:1" fill="#532a1d" d="M 53.5,179.5 C 55.5,179.5 57.5,179.5 59.5,179.5C 59.5,183.5 59.5,187.5 59.5,191.5C 59.5,197.5 59.5,203.5 59.5,209.5C 57.5,209.5 55.5,209.5 53.5,209.5C 53.5,199.5 53.5,189.5 53.5,179.5 Z"/></g>
<g><path shape-rendering="crispEdges" style="opacity:1" fill="#532a1d" d="M 131.5,179.5 C 133.5,179.5 135.5,179.5 137.5,179.5C 137.5,189.5 137.5,199.5 137.5,209.5C 135.5,209.5 133.5,209.5 131.5,209.5C 131.5,203.5 131.5,197.5 131.5,191.5C 131.5,187.5 131.5,183.5 131.5,179.5 Z"/></g>
<g><path shape-rendering="crispEdges" style="opacity:1" fill="#29150e" d="M 137.5,179.5 C 139.5,179.5 141.5,179.5 143.5,179.5C 143.5,189.5 143.5,199.5 143.5,209.5C 141.5,209.5 139.5,209.5 137.5,209.5C 137.5,199.5 137.5,189.5 137.5,179.5 Z"/></g>
<g><path shape-rendering="crispEdges" style="opacity:1" fill="#29150e" d="M 47.5,209.5 C 47.5,219.5 47.5,229.5 47.5,239.5C 45.5,239.5 43.5,239.5 41.5,239.5C 41.5,229.5 41.5,219.5 41.5,209.5C 43.5,209.5 45.5,209.5 47.5,209.5 Z"/></g>
<g><path shape-rendering="crispEdges" style="opacity:1" fill="#532a1d" d="M 47.5,209.5 C 49.5,209.5 51.5,209.5 53.5,209.5C 53.5,211.5 53.5,213.5 53.5,215.5C 53.5,225.5 53.5,235.5 53.5,245.5C 51.5,245.5 49.5,245.5 47.5,245.5C 47.5,247.5 47.5,249.5 47.5,251.5C 45.5,251.5 43.5,251.5 41.5,251.5C 41.5,247.5 41.5,243.5 41.5,239.5C 43.5,239.5 45.5,239.5 47.5,239.5C 47.5,229.5 47.5,219.5 47.5,209.5 Z"/></g>
<g><path shape-rendering="crispEdges" style="opacity:1" fill="#3e212e" d="M 53.5,209.5 C 55.5,209.5 57.5,209.5 59.5,209.5C 59.5,211.5 59.5,213.5 59.5,215.5C 57.5,215.5 55.5,215.5 53.5,215.5C 53.5,213.5 53.5,211.5 53.5,209.5 Z"/></g>
<g><path shape-rendering="crispEdges" style="opacity:1" fill="#3e212e" d="M 131.5,209.5 C 133.5,209.5 135.5,209.5 137.5,209.5C 137.5,211.5 137.5,213.5 137.5,215.5C 135.5,215.5 133.5,215.5 131.5,215.5C 131.5,213.5 131.5,211.5 131.5,209.5 Z"/></g>
<g><path shape-rendering="crispEdges" style="opacity:1" fill="#532a1d" d="M 137.5,209.5 C 139.5,209.5 141.5,209.5 143.5,209.5C 143.5,219.5 143.5,229.5 143.5,239.5C 145.5,239.5 147.5,239.5 149.5,239.5C 149.5,243.5 149.5,247.5 149.5,251.5C 147.5,251.5 145.5,251.5 143.5,251.5C 143.5,249.5 143.5,247.5 143.5,245.5C 141.5,245.5 139.5,245.5 137.5,245.5C 137.5,235.5 137.5,225.5 137.5,215.5C 137.5,213.5 137.5,211.5 137.5,209.5 Z"/></g>
<g><path shape-rendering="crispEdges" style="opacity:1" fill="#29150e" d="M 143.5,209.5 C 145.5,209.5 147.5,209.5 149.5,209.5C 149.5,219.5 149.5,229.5 149.5,239.5C 147.5,239.5 145.5,239.5 143.5,239.5C 143.5,229.5 143.5,219.5 143.5,209.5 Z"/></g>
<g><path shape-rendering="crispEdges" style="opacity:1" fill="#29150e" d="M 53.5,215.5 C 55.5,215.5 57.5,215.5 59.5,215.5C 59.5,225.5 59.5,235.5 59.5,245.5C 61.5,245.5 63.5,245.5 65.5,245.5C 65.5,269.5 65.5,293.5 65.5,317.5C 63.5,317.5 61.5,317.5 59.5,317.5C 59.5,299.5 59.5,281.5 59.5,263.5C 57.5,263.5 55.5,263.5 53.5,263.5C 53.5,265.5 53.5,267.5 53.5,269.5C 47.5,269.5 41.5,269.5 35.5,269.5C 35.5,267.5 35.5,265.5 35.5,263.5C 37.5,263.5 39.5,263.5 41.5,263.5C 43.5,263.5 45.5,263.5 47.5,263.5C 47.5,261.5 47.5,259.5 47.5,257.5C 49.5,257.5 51.5,257.5 53.5,257.5C 53.5,253.5 53.5,249.5 53.5,245.5C 53.5,235.5 53.5,225.5 53.5,215.5 Z"/></g>
<g><path shape-rendering="crispEdges" style="opacity:1" fill="#29150e" d="M 131.5,215.5 C 133.5,215.5 135.5,215.5 137.5,215.5C 137.5,225.5 137.5,235.5 137.5,245.5C 137.5,249.5 137.5,253.5 137.5,257.5C 139.5,257.5 141.5,257.5 143.5,257.5C 143.5,259.5 143.5,261.5 143.5,263.5C 145.5,263.5 147.5,263.5 149.5,263.5C 151.5,263.5 153.5,263.5 155.5,263.5C 155.5,265.5 155.5,267.5 155.5,269.5C 149.5,269.5 143.5,269.5 137.5,269.5C 137.5,267.5 137.5,265.5 137.5,263.5C 135.5,263.5 133.5,263.5 131.5,263.5C 131.5,281.5 131.5,299.5 131.5,317.5C 129.5,317.5 127.5,317.5 125.5,317.5C 125.5,293.5 125.5,269.5 125.5,245.5C 127.5,245.5 129.5,245.5 131.5,245.5C 131.5,235.5 131.5,225.5 131.5,215.5 Z"/></g>
<g><path shape-rendering="crispEdges" style="opacity:1" fill="#29150e" d="M 41.5,239.5 C 41.5,243.5 41.5,247.5 41.5,251.5C 39.5,251.5 37.5,251.5 35.5,251.5C 35.5,247.5 35.5,243.5 35.5,239.5C 37.5,239.5 39.5,239.5 41.5,239.5 Z"/></g>
<g><path shape-rendering="crispEdges" style="opacity:1" fill="#29150e" d="M 149.5,239.5 C 151.5,239.5 153.5,239.5 155.5,239.5C 155.5,243.5 155.5,247.5 155.5,251.5C 153.5,251.5 151.5,251.5 149.5,251.5C 149.5,247.5 149.5,243.5 149.5,239.5 Z"/></g>
<g><path shape-rendering="crispEdges" style="opacity:1" fill="#3e212e" d="M 53.5,245.5 C 53.5,249.5 53.5,253.5 53.5,257.5C 51.5,257.5 49.5,257.5 47.5,257.5C 47.5,259.5 47.5,261.5 47.5,263.5C 45.5,263.5 43.5,263.5 41.5,263.5C 41.5,259.5 41.5,255.5 41.5,251.5C 43.5,251.5 45.5,251.5 47.5,251.5C 47.5,249.5 47.5,247.5 47.5,245.5C 49.5,245.5 51.5,245.5 53.5,245.5 Z"/></g>
<g><path shape-rendering="crispEdges" style="opacity:1" fill="#3e212e" d="M 137.5,245.5 C 139.5,245.5 141.5,245.5 143.5,245.5C 143.5,247.5 143.5,249.5 143.5,251.5C 145.5,251.5 147.5,251.5 149.5,251.5C 149.5,255.5 149.5,259.5 149.5,263.5C 147.5,263.5 145.5,263.5 143.5,263.5C 143.5,261.5 143.5,259.5 143.5,257.5C 141.5,257.5 139.5,257.5 137.5,257.5C 137.5,253.5 137.5,249.5 137.5,245.5 Z"/></g>
<g><path shape-rendering="crispEdges" style="opacity:1" fill="#29150e" d="M 35.5,251.5 C 35.5,255.5 35.5,259.5 35.5,263.5C 33.5,263.5 31.5,263.5 29.5,263.5C 29.5,259.5 29.5,255.5 29.5,251.5C 31.5,251.5 33.5,251.5 35.5,251.5 Z"/></g>
<g><path shape-rendering="crispEdges" style="opacity:1" fill="#532a1d" d="M 35.5,251.5 C 37.5,251.5 39.5,251.5 41.5,251.5C 41.5,255.5 41.5,259.5 41.5,263.5C 39.5,263.5 37.5,263.5 35.5,263.5C 35.5,259.5 35.5,255.5 35.5,251.5 Z"/></g>
<g><path shape-rendering="crispEdges" style="opacity:1" fill="#532a1d" d="M 149.5,251.5 C 151.5,251.5 153.5,251.5 155.5,251.5C 155.5,255.5 155.5,259.5 155.5,263.5C 153.5,263.5 151.5,263.5 149.5,263.5C 149.5,259.5 149.5,255.5 149.5,251.5 Z"/></g>
<g><path shape-rendering="crispEdges" style="opacity:1" fill="#29150e" d="M 155.5,251.5 C 157.5,251.5 159.5,251.5 161.5,251.5C 161.5,255.5 161.5,259.5 161.5,263.5C 159.5,263.5 157.5,263.5 155.5,263.5C 155.5,259.5 155.5,255.5 155.5,251.5 Z"/></g>
<g><path shape-rendering="crispEdges" style="opacity:1" fill="#3e212e" d="M 107.5,269.5 C 99.5,269.5 91.5,269.5 83.5,269.5C 83.5,267.5 83.5,265.5 83.5,263.5C 91.5,263.5 99.5,263.5 107.5,263.5C 107.5,265.5 107.5,267.5 107.5,269.5 Z"/></g>
<g><path shape-rendering="crispEdges" style="opacity:1" fill="#29150e" d="M 83.5,269.5 C 91.5,269.5 99.5,269.5 107.5,269.5C 107.5,285.5 107.5,301.5 107.5,317.5C 107.5,335.5 107.5,353.5 107.5,371.5C 105.5,371.5 103.5,371.5 101.5,371.5C 101.5,339.5 101.5,307.5 101.5,275.5C 97.5,275.5 93.5,275.5 89.5,275.5C 89.5,307.5 89.5,339.5 89.5,371.5C 87.5,371.5 85.5,371.5 83.5,371.5C 83.5,353.5 83.5,335.5 83.5,317.5C 83.5,301.5 83.5,285.5 83.5,269.5 Z"/></g>
<g><path shape-rendering="crispEdges" style="opacity:1" fill="#29150e" d="M 65.5,317.5 C 67.5,317.5 69.5,317.5 71.5,317.5C 71.5,331.5 71.5,345.5 71.5,359.5C 69.5,359.5 67.5,359.5 65.5,359.5C 65.5,345.5 65.5,331.5 65.5,317.5 Z"/></g>
<g><path shape-rendering="crispEdges" style="opacity:1" fill="#3e212e" d="M 71.5,317.5 C 75.5,317.5 79.5,317.5 83.5,317.5C 83.5,335.5 83.5,353.5 83.5,371.5C 81.5,371.5 79.5,371.5 77.5,371.5C 77.5,367.5 77.5,363.5 77.5,359.5C 75.5,359.5 73.5,359.5 71.5,359.5C 71.5,345.5 71.5,331.5 71.5,317.5 Z"/></g>
<g><path shape-rendering="crispEdges" style="opacity:1" fill="#3e212e" d="M 107.5,317.5 C 111.5,317.5 115.5,317.5 119.5,317.5C 119.5,331.5 119.5,345.5 119.5,359.5C 117.5,359.5 115.5,359.5 113.5,359.5C 113.5,363.5 113.5,367.5 113.5,371.5C 111.5,371.5 109.5,371.5 107.5,371.5C 107.5,353.5 107.5,335.5 107.5,317.5 Z"/></g>
<g><path shape-rendering="crispEdges" style="opacity:1" fill="#29150e" d="M 119.5,317.5 C 121.5,317.5 123.5,317.5 125.5,317.5C 125.5,331.5 125.5,345.5 125.5,359.5C 123.5,359.5 121.5,359.5 119.5,359.5C 119.5,345.5 119.5,331.5 119.5,317.5 Z"/></g>
<g><path shape-rendering="crispEdges" style="opacity:1" fill="#29150e" d="M 65.5,359.5 C 65.5,361.5 65.5,363.5 65.5,365.5C 61.5,365.5 57.5,365.5 53.5,365.5C 53.5,363.5 53.5,361.5 53.5,359.5C 57.5,359.5 61.5,359.5 65.5,359.5 Z"/></g>
<g><path shape-rendering="crispEdges" style="opacity:1" fill="#532a1d" d="M 65.5,359.5 C 67.5,359.5 69.5,359.5 71.5,359.5C 73.5,359.5 75.5,359.5 77.5,359.5C 77.5,363.5 77.5,367.5 77.5,371.5C 73.5,371.5 69.5,371.5 65.5,371.5C 65.5,373.5 65.5,375.5 65.5,377.5C 61.5,377.5 57.5,377.5 53.5,377.5C 53.5,373.5 53.5,369.5 53.5,365.5C 57.5,365.5 61.5,365.5 65.5,365.5C 65.5,363.5 65.5,361.5 65.5,359.5 Z"/></g>
<g><path shape-rendering="crispEdges" style="opacity:1" fill="#532a1d" d="M 119.5,359.5 C 121.5,359.5 123.5,359.5 125.5,359.5C 125.5,361.5 125.5,363.5 125.5,365.5C 129.5,365.5 133.5,365.5 137.5,365.5C 137.5,369.5 137.5,373.5 137.5,377.5C 133.5,377.5 129.5,377.5 125.5,377.5C 125.5,375.5 125.5,373.5 125.5,371.5C 121.5,371.5 117.5,371.5 113.5,371.5C 113.5,367.5 113.5,363.5 113.5,359.5C 115.5,359.5 117.5,359.5 119.5,359.5 Z"/></g>
<g><path shape-rendering="crispEdges" style="opacity:1" fill="#29150e" d="M 125.5,359.5 C 129.5,359.5 133.5,359.5 137.5,359.5C 137.5,361.5 137.5,363.5 137.5,365.5C 133.5,365.5 129.5,365.5 125.5,365.5C 125.5,363.5 125.5,361.5 125.5,359.5 Z"/></g>
<g><path shape-rendering="crispEdges" style="opacity:1" fill="#29150e" d="M 53.5,365.5 C 53.5,369.5 53.5,373.5 53.5,377.5C 57.5,377.5 61.5,377.5 65.5,377.5C 69.5,377.5 73.5,377.5 77.5,377.5C 77.5,379.5 77.5,381.5 77.5,383.5C 67.5,383.5 57.5,383.5 47.5,383.5C 47.5,377.5 47.5,371.5 47.5,365.5C 49.5,365.5 51.5,365.5 53.5,365.5 Z"/></g>
<g><path shape-rendering="crispEdges" style="opacity:1" fill="#29150e" d="M 137.5,365.5 C 139.5,365.5 141.5,365.5 143.5,365.5C 143.5,371.5 143.5,377.5 143.5,383.5C 133.5,383.5 123.5,383.5 113.5,383.5C 113.5,381.5 113.5,379.5 113.5,377.5C 117.5,377.5 121.5,377.5 125.5,377.5C 129.5,377.5 133.5,377.5 137.5,377.5C 137.5,373.5 137.5,369.5 137.5,365.5 Z"/></g>
<g><path shape-rendering="crispEdges" style="opacity:1" fill="#3e212e" d="M 77.5,371.5 C 77.5,373.5 77.5,375.5 77.5,377.5C 73.5,377.5 69.5,377.5 65.5,377.5C 65.5,375.5 65.5,373.5 65.5,371.5C 69.5,371.5 73.5,371.5 77.5,371.5 Z"/></g>
<g><path shape-rendering="crispEdges" style="opacity:1" fill="#29150e" d="M 77.5,371.5 C 79.5,371.5 81.5,371.5 83.5,371.5C 83.5,373.5 83.5,375.5 83.5,377.5C 81.5,377.5 79.5,377.5 77.5,377.5C 77.5,375.5 77.5,373.5 77.5,371.5 Z"/></g>
<g><path shape-rendering="crispEdges" style="opacity:1" fill="#29150e" d="M 107.5,371.5 C 109.5,371.5 111.5,371.5 113.5,371.5C 113.5,373.5 113.5,375.5 113.5,377.5C 111.5,377.5 109.5,377.5 107.5,377.5C 107.5,375.5 107.5,373.5 107.5,371.5 Z"/></g>
<g><path shape-rendering="crispEdges" style="opacity:1" fill="#3e212e" d="M 113.5,371.5 C 117.5,371.5 121.5,371.5 125.5,371.5C 125.5,373.5 125.5,375.5 125.5,377.5C 121.5,377.5 117.5,377.5 113.5,377.5C 113.5,375.5 113.5,373.5 113.5,371.5 Z"/></g>
</svg>
