<?xml version="1.0" encoding="UTF-8"?>
<!DOCTYPE svg PUBLIC "-//W3C//DTD SVG 1.1//EN" "http://www.w3.org/Graphics/SVG/1.1/DTD/svg11.dtd">
<svg xmlns="http://www.w3.org/2000/svg" version="1.1" width="192px" height="384px" style="shape-rendering:geometricPrecision; text-rendering:geometricPrecision; image-rendering:optimizeQuality; fill-rule:evenodd; clip-rule:evenodd" xmlns:xlink="http://www.w3.org/1999/xlink">
<g><path shape-rendering="crispEdges" style="opacity:1" fill="#573f2f" d="M 113.5,47.5 C 101.5,47.5 89.5,47.5 77.5,47.5C 77.5,45.5 77.5,43.5 77.5,41.5C 89.5,41.5 101.5,41.5 113.5,41.5C 113.5,43.5 113.5,45.5 113.5,47.5 Z"/></g>
<g><path shape-rendering="crispEdges" style="opacity:1" fill="#573f2f" d="M 77.5,47.5 C 77.5,49.5 77.5,51.5 77.5,53.5C 73.5,53.5 69.5,53.5 65.5,53.5C 65.5,51.5 65.5,49.5 65.5,47.5C 69.5,47.5 73.5,47.5 77.5,47.5 Z"/></g>
<g><path shape-rendering="crispEdges" style="opacity:1" fill="#b07e60" d="M 77.5,47.5 C 89.5,47.5 101.5,47.5 113.5,47.5C 113.5,49.5 113.5,51.5 113.5,53.5C 117.5,53.5 121.5,53.5 125.5,53.5C 125.5,55.5 125.5,57.5 125.5,59.5C 127.5,59.5 129.5,59.5 131.5,59.5C 131.5,63.5 131.5,67.5 131.5,71.5C 133.5,71.5 135.5,71.5 137.5,71.5C 137.5,85.5 137.5,99.5 137.5,113.5C 135.5,113.5 133.5,113.5 131.5,113.5C 131.5,119.5 131.5,125.5 131.5,131.5C 129.5,131.5 127.5,131.5 125.5,131.5C 125.5,133.5 125.5,135.5 125.5,137.5C 123.5,137.5 121.5,137.5 119.5,137.5C 119.5,139.5 119.5,141.5 119.5,143.5C 117.5,143.5 115.5,143.5 113.5,143.5C 111.5,143.5 109.5,143.5 107.5,143.5C 107.5,141.5 107.5,139.5 107.5,137.5C 99.5,137.5 91.5,137.5 83.5,137.5C 83.5,139.5 83.5,141.5 83.5,143.5C 81.5,143.5 79.5,143.5 77.5,143.5C 75.5,143.5 73.5,143.5 71.5,143.5C 71.5,141.5 71.5,139.5 71.5,137.5C 69.5,137.5 67.5,137.5 65.5,137.5C 65.5,135.5 65.5,133.5 65.5,131.5C 63.5,131.5 61.5,131.5 59.5,131.5C 59.5,125.5 59.5,119.5 59.5,113.5C 57.5,113.5 55.5,113.5 53.5,113.5C 53.5,99.5 53.5,85.5 53.5,71.5C 55.5,71.5 57.5,71.5 59.5,71.5C 59.5,67.5 59.5,63.5 59.5,59.5C 61.5,59.5 63.5,59.5 65.5,59.5C 65.5,57.5 65.5,55.5 65.5,53.5C 69.5,53.5 73.5,53.5 77.5,53.5C 77.5,51.5 77.5,49.5 77.5,47.5 Z"/></g>
<g><path shape-rendering="crispEdges" style="opacity:1" fill="#573f2f" d="M 113.5,47.5 C 117.5,47.5 121.5,47.5 125.5,47.5C 125.5,49.5 125.5,51.5 125.5,53.5C 121.5,53.5 117.5,53.5 113.5,53.5C 113.5,51.5 113.5,49.5 113.5,47.5 Z"/></g>
<g><path shape-rendering="crispEdges" style="opacity:1" fill="#573f2f" d="M 65.5,53.5 C 65.5,55.5 65.5,57.5 65.5,59.5C 63.5,59.5 61.5,59.5 59.5,59.5C 59.5,57.5 59.5,55.5 59.5,53.5C 61.5,53.5 63.5,53.5 65.5,53.5 Z"/></g>
<g><path shape-rendering="crispEdges" style="opacity:1" fill="#573f2f" d="M 125.5,53.5 C 127.5,53.5 129.5,53.5 131.5,53.5C 131.5,55.5 131.5,57.5 131.5,59.5C 131.5,57.5 131.5,55.5 131.5,53.5C 129.5,53.5 127.5,53.5 125.5,53.5 Z"/></g>
<g><path shape-rendering="crispEdges" style="opacity:1" fill="#573f2f" d="M 59.5,59.5 C 59.5,63.5 59.5,67.5 59.5,71.5C 57.5,71.5 55.5,71.5 53.5,71.5C 53.5,67.5 53.5,63.5 53.5,59.5C 55.5,59.5 57.5,59.5 59.5,59.5 Z"/></g>
<g><path shape-rendering="crispEdges" style="opacity:1" fill="#573f2f" d="M 131.5,59.5 C 133.5,59.5 135.5,59.5 137.5,59.5C 137.5,63.5 137.5,67.5 137.5,71.5C 135.5,71.5 133.5,71.5 131.5,71.5C 131.5,67.5 131.5,63.5 131.5,59.5 Z"/></g>
<g><path shape-rendering="crispEdges" style="opacity:1" fill="#573f2f" d="M 53.5,71.5 C 53.5,85.5 53.5,99.5 53.5,113.5C 53.5,119.5 53.5,125.5 53.5,131.5C 51.5,131.5 49.5,131.5 47.5,131.5C 47.5,129.5 47.5,127.5 47.5,125.5C 45.5,125.5 43.5,125.5 41.5,125.5C 41.5,123.5 41.5,121.5 41.5,119.5C 43.5,119.5 45.5,119.5 47.5,119.5C 47.5,117.5 47.5,115.5 47.5,113.5C 47.5,109.5 47.5,105.5 47.5,101.5C 47.5,99.5 47.5,97.5 47.5,95.5C 45.5,95.5 43.5,95.5 41.5,95.5C 41.5,93.5 41.5,91.5 41.5,89.5C 43.5,89.5 45.5,89.5 47.5,89.5C 47.5,83.5 47.5,77.5 47.5,71.5C 49.5,71.5 51.5,71.5 53.5,71.5 Z"/></g>
<g><path shape-rendering="crispEdges" style="opacity:1" fill="#573f2f" d="M 137.5,71.5 C 139.5,71.5 141.5,71.5 143.5,71.5C 143.5,77.5 143.5,83.5 143.5,89.5C 145.5,89.5 147.5,89.5 149.5,89.5C 149.5,91.5 149.5,93.5 149.5,95.5C 147.5,95.5 145.5,95.5 143.5,95.5C 143.5,97.5 143.5,99.5 143.5,101.5C 143.5,105.5 143.5,109.5 143.5,113.5C 143.5,115.5 143.5,117.5 143.5,119.5C 145.5,119.5 147.5,119.5 149.5,119.5C 149.5,121.5 149.5,123.5 149.5,125.5C 147.5,125.5 145.5,125.5 143.5,125.5C 143.5,127.5 143.5,129.5 143.5,131.5C 141.5,131.5 139.5,131.5 137.5,131.5C 137.5,125.5 137.5,119.5 137.5,113.5C 137.5,99.5 137.5,85.5 137.5,71.5 Z"/></g>
<g><path shape-rendering="crispEdges" style="opacity:1" fill="#846060" d="M 83.5,113.5 C 77.5,113.5 71.5,113.5 65.5,113.5C 65.5,109.5 65.5,105.5 65.5,101.5C 63.5,101.5 61.5,101.5 59.5,101.5C 59.5,97.5 59.5,93.5 59.5,89.5C 67.5,89.5 75.5,89.5 83.5,89.5C 83.5,97.5 83.5,105.5 83.5,113.5 Z"/></g>
<g><path shape-rendering="crispEdges" style="opacity:1" fill="#846060" d="M 125.5,113.5 C 119.5,113.5 113.5,113.5 107.5,113.5C 107.5,105.5 107.5,97.5 107.5,89.5C 115.5,89.5 123.5,89.5 131.5,89.5C 131.5,93.5 131.5,97.5 131.5,101.5C 129.5,101.5 127.5,101.5 125.5,101.5C 125.5,105.5 125.5,109.5 125.5,113.5 Z"/></g>
<g><path shape-rendering="crispEdges" style="opacity:1" fill="#573f2f" d="M 41.5,95.5 C 41.5,97.5 41.5,99.5 41.5,101.5C 41.5,105.5 41.5,109.5 41.5,113.5C 41.5,115.5 41.5,117.5 41.5,119.5C 39.5,119.5 37.5,119.5 35.5,119.5C 35.5,111.5 35.5,103.5 35.5,95.5C 37.5,95.5 39.5,95.5 41.5,95.5 Z"/></g>
<g><path shape-rendering="crispEdges" style="opacity:1" fill="#bf946b" d="M 41.5,95.5 C 43.5,95.5 45.5,95.5 47.5,95.5C 47.5,97.5 47.5,99.5 47.5,101.5C 45.5,101.5 43.5,101.5 41.5,101.5C 41.5,99.5 41.5,97.5 41.5,95.5 Z"/></g>
<g><path shape-rendering="crispEdges" style="opacity:1" fill="#bf946b" d="M 149.5,95.5 C 149.5,97.5 149.5,99.5 149.5,101.5C 147.5,101.5 145.5,101.5 143.5,101.5C 143.5,99.5 143.5,97.5 143.5,95.5C 145.5,95.5 147.5,95.5 149.5,95.5 Z"/></g>
<g><path shape-rendering="crispEdges" style="opacity:1" fill="#573f2f" d="M 149.5,95.5 C 151.5,95.5 153.5,95.5 155.5,95.5C 155.5,103.5 155.5,111.5 155.5,119.5C 153.5,119.5 151.5,119.5 149.5,119.5C 149.5,117.5 149.5,115.5 149.5,113.5C 149.5,109.5 149.5,105.5 149.5,101.5C 149.5,99.5 149.5,97.5 149.5,95.5 Z"/></g>
<g><path shape-rendering="crispEdges" style="opacity:1" fill="#b07e60" d="M 41.5,101.5 C 43.5,101.5 45.5,101.5 47.5,101.5C 47.5,105.5 47.5,109.5 47.5,113.5C 45.5,113.5 43.5,113.5 41.5,113.5C 41.5,109.5 41.5,105.5 41.5,101.5 Z"/></g>
<g><path shape-rendering="crispEdges" style="opacity:1" fill="#b07e60" d="M 143.5,101.5 C 145.5,101.5 147.5,101.5 149.5,101.5C 149.5,105.5 149.5,109.5 149.5,113.5C 147.5,113.5 145.5,113.5 143.5,113.5C 143.5,109.5 143.5,105.5 143.5,101.5 Z"/></g>
<g><path shape-rendering="crispEdges" style="opacity:1" fill="#846060" d="M 41.5,113.5 C 43.5,113.5 45.5,113.5 47.5,113.5C 47.5,115.5 47.5,117.5 47.5,119.5C 45.5,119.5 43.5,119.5 41.5,119.5C 41.5,117.5 41.5,115.5 41.5,113.5 Z"/></g>
<g><path shape-rendering="crispEdges" style="opacity:1" fill="#846060" d="M 53.5,113.5 C 55.5,113.5 57.5,113.5 59.5,113.5C 59.5,119.5 59.5,125.5 59.5,131.5C 57.5,131.5 55.5,131.5 53.5,131.5C 53.5,125.5 53.5,119.5 53.5,113.5 Z"/></g>
<g><path shape-rendering="crispEdges" style="opacity:1" fill="#bf946b" d="M 65.5,113.5 C 71.5,113.5 77.5,113.5 83.5,113.5C 83.5,117.5 83.5,121.5 83.5,125.5C 77.5,125.5 71.5,125.5 65.5,125.5C 65.5,121.5 65.5,117.5 65.5,113.5 Z"/></g>
<g><path shape-rendering="crispEdges" style="opacity:1" fill="#bf946b" d="M 107.5,113.5 C 113.5,113.5 119.5,113.5 125.5,113.5C 125.5,117.5 125.5,121.5 125.5,125.5C 119.5,125.5 113.5,125.5 107.5,125.5C 107.5,121.5 107.5,117.5 107.5,113.5 Z"/></g>
<g><path shape-rendering="crispEdges" style="opacity:1" fill="#846060" d="M 137.5,113.5 C 137.5,119.5 137.5,125.5 137.5,131.5C 135.5,131.5 133.5,131.5 131.5,131.5C 131.5,125.5 131.5,119.5 131.5,113.5C 133.5,113.5 135.5,113.5 137.5,113.5 Z"/></g>
<g><path shape-rendering="crispEdges" style="opacity:1" fill="#846060" d="M 143.5,113.5 C 145.5,113.5 147.5,113.5 149.5,113.5C 149.5,115.5 149.5,117.5 149.5,119.5C 147.5,119.5 145.5,119.5 143.5,119.5C 143.5,117.5 143.5,115.5 143.5,113.5 Z"/></g>
<g><path shape-rendering="crispEdges" style="opacity:1" fill="#573f2f" d="M 89.5,119.5 C 93.5,119.5 97.5,119.5 101.5,119.5C 101.5,121.5 101.5,123.5 101.5,125.5C 99.5,125.5 97.5,125.5 95.5,125.5C 95.5,127.5 95.5,129.5 95.5,131.5C 93.5,131.5 91.5,131.5 89.5,131.5C 89.5,127.5 89.5,123.5 89.5,119.5 Z"/></g>
<g><path shape-rendering="crispEdges" style="opacity:1" fill="#573f2f" d="M 53.5,131.5 C 55.5,131.5 57.5,131.5 59.5,131.5C 59.5,133.5 59.5,135.5 59.5,137.5C 57.5,137.5 55.5,137.5 53.5,137.5C 53.5,135.5 53.5,133.5 53.5,131.5 Z"/></g>
<g><path shape-rendering="crispEdges" style="opacity:1" fill="#846060" d="M 59.5,131.5 C 61.5,131.5 63.5,131.5 65.5,131.5C 65.5,133.5 65.5,135.5 65.5,137.5C 63.5,137.5 61.5,137.5 59.5,137.5C 59.5,135.5 59.5,133.5 59.5,131.5 Z"/></g>
<g><path shape-rendering="crispEdges" style="opacity:1" fill="#846060" d="M 131.5,131.5 C 131.5,133.5 131.5,135.5 131.5,137.5C 129.5,137.5 127.5,137.5 125.5,137.5C 125.5,135.5 125.5,133.5 125.5,131.5C 127.5,131.5 129.5,131.5 131.5,131.5 Z"/></g>
<g><path shape-rendering="crispEdges" style="opacity:1" fill="#573f2f" d="M 131.5,131.5 C 133.5,131.5 135.5,131.5 137.5,131.5C 137.5,133.5 137.5,135.5 137.5,137.5C 135.5,137.5 133.5,137.5 131.5,137.5C 131.5,135.5 131.5,133.5 131.5,131.5 Z"/></g>
<g><path shape-rendering="crispEdges" style="opacity:1" fill="#573f2f" d="M 59.5,137.5 C 61.5,137.5 63.5,137.5 65.5,137.5C 65.5,139.5 65.5,141.5 65.5,143.5C 63.5,143.5 61.5,143.5 59.5,143.5C 59.5,141.5 59.5,139.5 59.5,137.5 Z"/></g>
<g><path shape-rendering="crispEdges" style="opacity:1" fill="#846060" d="M 65.5,137.5 C 67.5,137.5 69.5,137.5 71.5,137.5C 71.5,139.5 71.5,141.5 71.5,143.5C 69.5,143.5 67.5,143.5 65.5,143.5C 65.5,141.5 65.5,139.5 65.5,137.5 Z"/></g>
<g><path shape-rendering="crispEdges" style="opacity:1" fill="#573f2f" d="M 107.5,143.5 C 99.5,143.5 91.5,143.5 83.5,143.5C 83.5,141.5 83.5,139.5 83.5,137.5C 91.5,137.5 99.5,137.5 107.5,137.5C 107.5,139.5 107.5,141.5 107.5,143.5 Z"/></g>
<g><path shape-rendering="crispEdges" style="opacity:1" fill="#846060" d="M 125.5,137.5 C 125.5,139.5 125.5,141.5 125.5,143.5C 123.5,143.5 121.5,143.5 119.5,143.5C 119.5,141.5 119.5,139.5 119.5,137.5C 121.5,137.5 123.5,137.5 125.5,137.5 Z"/></g>
<g><path shape-rendering="crispEdges" style="opacity:1" fill="#573f2f" d="M 125.5,137.5 C 127.5,137.5 129.5,137.5 131.5,137.5C 131.5,139.5 131.5,141.5 131.5,143.5C 129.5,143.5 127.5,143.5 125.5,143.5C 125.5,141.5 125.5,139.5 125.5,137.5 Z"/></g>
<g><path shape-rendering="crispEdges" style="opacity:1" fill="#573f2f" d="M 65.5,143.5 C 67.5,143.5 69.5,143.5 71.5,143.5C 73.5,143.5 75.5,143.5 77.5,143.5C 77.5,145.5 77.5,147.5 77.5,149.5C 79.5,149.5 81.5,149.5 83.5,149.5C 91.5,149.5 99.5,149.5 107.5,149.5C 109.5,149.5 111.5,149.5 113.5,149.5C 113.5,147.5 113.5,145.5 113.5,143.5C 115.5,143.5 117.5,143.5 119.5,143.5C 121.5,143.5 123.5,143.5 125.5,143.5C 125.5,145.5 125.5,147.5 125.5,149.5C 123.5,149.5 121.5,149.5 119.5,149.5C 119.5,151.5 119.5,153.5 119.5,155.5C 115.5,155.5 111.5,155.5 107.5,155.5C 107.5,157.5 107.5,159.5 107.5,161.5C 105.5,161.5 103.5,161.5 101.5,161.5C 101.5,159.5 101.5,157.5 101.5,155.5C 97.5,155.5 93.5,155.5 89.5,155.5C 89.5,157.5 89.5,159.5 89.5,161.5C 87.5,161.5 85.5,161.5 83.5,161.5C 83.5,159.5 83.5,157.5 83.5,155.5C 79.5,155.5 75.5,155.5 71.5,155.5C 71.5,153.5 71.5,151.5 71.5,149.5C 69.5,149.5 67.5,149.5 65.5,149.5C 65.5,147.5 65.5,145.5 65.5,143.5 Z"/></g>
<g><path shape-rendering="crispEdges" style="opacity:1" fill="#846060" d="M 77.5,143.5 C 79.5,143.5 81.5,143.5 83.5,143.5C 83.5,145.5 83.5,147.5 83.5,149.5C 81.5,149.5 79.5,149.5 77.5,149.5C 77.5,147.5 77.5,145.5 77.5,143.5 Z"/></g>
<g><path shape-rendering="crispEdges" style="opacity:1" fill="#b07e60" d="M 83.5,143.5 C 91.5,143.5 99.5,143.5 107.5,143.5C 107.5,145.5 107.5,147.5 107.5,149.5C 99.5,149.5 91.5,149.5 83.5,149.5C 83.5,147.5 83.5,145.5 83.5,143.5 Z"/></g>
<g><path shape-rendering="crispEdges" style="opacity:1" fill="#846060" d="M 107.5,143.5 C 109.5,143.5 111.5,143.5 113.5,143.5C 113.5,145.5 113.5,147.5 113.5,149.5C 111.5,149.5 109.5,149.5 107.5,149.5C 107.5,147.5 107.5,145.5 107.5,143.5 Z"/></g>
<g><path shape-rendering="crispEdges" style="opacity:1" fill="#573f2f" d="M 71.5,155.5 C 71.5,157.5 71.5,159.5 71.5,161.5C 69.5,161.5 67.5,161.5 65.5,161.5C 65.5,159.5 65.5,157.5 65.5,155.5C 67.5,155.5 69.5,155.5 71.5,155.5 Z"/></g>
<g><path shape-rendering="crispEdges" style="opacity:1" fill="#846060" d="M 71.5,155.5 C 75.5,155.5 79.5,155.5 83.5,155.5C 83.5,157.5 83.5,159.5 83.5,161.5C 79.5,161.5 75.5,161.5 71.5,161.5C 71.5,159.5 71.5,157.5 71.5,155.5 Z"/></g>
<g><path shape-rendering="crispEdges" style="opacity:1" fill="#846060" d="M 101.5,161.5 C 97.5,161.5 93.5,161.5 89.5,161.5C 89.5,159.5 89.5,157.5 89.5,155.5C 93.5,155.5 97.5,155.5 101.5,155.5C 101.5,157.5 101.5,159.5 101.5,161.5 Z"/></g>
<g><path shape-rendering="crispEdges" style="opacity:1" fill="#846060" d="M 119.5,155.5 C 119.5,157.5 119.5,159.5 119.5,161.5C 115.5,161.5 111.5,161.5 107.5,161.5C 107.5,159.5 107.5,157.5 107.5,155.5C 111.5,155.5 115.5,155.5 119.5,155.5 Z"/></g>
<g><path shape-rendering="crispEdges" style="opacity:1" fill="#573f2f" d="M 119.5,155.5 C 121.5,155.5 123.5,155.5 125.5,155.5C 125.5,157.5 125.5,159.5 125.5,161.5C 123.5,161.5 121.5,161.5 119.5,161.5C 119.5,159.5 119.5,157.5 119.5,155.5 Z"/></g>
<g><path shape-rendering="crispEdges" style="opacity:1" fill="#573f2f" d="M 65.5,161.5 C 65.5,163.5 65.5,165.5 65.5,167.5C 63.5,167.5 61.5,167.5 59.5,167.5C 59.5,165.5 59.5,163.5 59.5,161.5C 61.5,161.5 63.5,161.5 65.5,161.5 Z"/></g>
<g><path shape-rendering="crispEdges" style="opacity:1" fill="#b07e60" d="M 65.5,161.5 C 67.5,161.5 69.5,161.5 71.5,161.5C 75.5,161.5 79.5,161.5 83.5,161.5C 85.5,161.5 87.5,161.5 89.5,161.5C 93.5,161.5 97.5,161.5 101.5,161.5C 103.5,161.5 105.5,161.5 107.5,161.5C 111.5,161.5 115.5,161.5 119.5,161.5C 121.5,161.5 123.5,161.5 125.5,161.5C 125.5,163.5 125.5,165.5 125.5,167.5C 127.5,167.5 129.5,167.5 131.5,167.5C 131.5,169.5 131.5,171.5 131.5,173.5C 129.5,173.5 127.5,173.5 125.5,173.5C 125.5,175.5 125.5,177.5 125.5,179.5C 125.5,225.5 125.5,271.5 125.5,317.5C 123.5,317.5 121.5,317.5 119.5,317.5C 115.5,317.5 111.5,317.5 107.5,317.5C 107.5,301.5 107.5,285.5 107.5,269.5C 107.5,267.5 107.5,265.5 107.5,263.5C 99.5,263.5 91.5,263.5 83.5,263.5C 83.5,265.5 83.5,267.5 83.5,269.5C 83.5,285.5 83.5,301.5 83.5,317.5C 79.5,317.5 75.5,317.5 71.5,317.5C 69.5,317.5 67.5,317.5 65.5,317.5C 65.5,271.5 65.5,225.5 65.5,179.5C 65.5,177.5 65.5,175.5 65.5,173.5C 63.5,173.5 61.5,173.5 59.5,173.5C 59.5,171.5 59.5,169.5 59.5,167.5C 61.5,167.5 63.5,167.5 65.5,167.5C 65.5,165.5 65.5,163.5 65.5,161.5 Z"/></g>
<g><path shape-rendering="crispEdges" style="opacity:1" fill="#573f2f" d="M 125.5,161.5 C 127.5,161.5 129.5,161.5 131.5,161.5C 131.5,163.5 131.5,165.5 131.5,167.5C 131.5,165.5 131.5,163.5 131.5,161.5C 129.5,161.5 127.5,161.5 125.5,161.5 Z"/></g>
<g><path shape-rendering="crispEdges" style="opacity:1" fill="#573f2f" d="M 59.5,167.5 C 59.5,169.5 59.5,171.5 59.5,173.5C 57.5,173.5 55.5,173.5 53.5,173.5C 53.5,171.5 53.5,169.5 53.5,167.5C 55.5,167.5 57.5,167.5 59.5,167.5 Z"/></g>
<g><path shape-rendering="crispEdges" style="opacity:1" fill="#573f2f" d="M 131.5,167.5 C 133.5,167.5 135.5,167.5 137.5,167.5C 137.5,169.5 137.5,171.5 137.5,173.5C 135.5,173.5 133.5,173.5 131.5,173.5C 131.5,171.5 131.5,169.5 131.5,167.5 Z"/></g>
<g><path shape-rendering="crispEdges" style="opacity:1" fill="#573f2f" d="M 53.5,173.5 C 53.5,175.5 53.5,177.5 53.5,179.5C 53.5,183.5 53.5,187.5 53.5,191.5C 51.5,191.5 49.5,191.5 47.5,191.5C 47.5,185.5 47.5,179.5 47.5,173.5C 49.5,173.5 51.5,173.5 53.5,173.5 Z"/></g>
<g><path shape-rendering="crispEdges" style="opacity:1" fill="#b07e60" d="M 53.5,173.5 C 55.5,173.5 57.5,173.5 59.5,173.5C 59.5,175.5 59.5,177.5 59.5,179.5C 57.5,179.5 55.5,179.5 53.5,179.5C 53.5,177.5 53.5,175.5 53.5,173.5 Z"/></g>
<g><path shape-rendering="crispEdges" style="opacity:1" fill="#846060" d="M 59.5,173.5 C 61.5,173.5 63.5,173.5 65.5,173.5C 65.5,175.5 65.5,177.5 65.5,179.5C 63.5,179.5 61.5,179.5 59.5,179.5C 59.5,177.5 59.5,175.5 59.5,173.5 Z"/></g>
<g><path shape-rendering="crispEdges" style="opacity:1" fill="#846060" d="M 131.5,173.5 C 131.5,175.5 131.5,177.5 131.5,179.5C 129.5,179.5 127.5,179.5 125.5,179.5C 125.5,177.5 125.5,175.5 125.5,173.5C 127.5,173.5 129.5,173.5 131.5,173.5 Z"/></g>
<g><path shape-rendering="crispEdges" style="opacity:1" fill="#b07e60" d="M 131.5,173.5 C 133.5,173.5 135.5,173.5 137.5,173.5C 137.5,175.5 137.5,177.5 137.5,179.5C 135.5,179.5 133.5,179.5 131.5,179.5C 131.5,177.5 131.5,175.5 131.5,173.5 Z"/></g>
<g><path shape-rendering="crispEdges" style="opacity:1" fill="#573f2f" d="M 137.5,173.5 C 139.5,173.5 141.5,173.5 143.5,173.5C 143.5,179.5 143.5,185.5 143.5,191.5C 141.5,191.5 139.5,191.5 137.5,191.5C 137.5,187.5 137.5,183.5 137.5,179.5C 137.5,177.5 137.5,175.5 137.5,173.5 Z"/></g>
<g><path shape-rendering="crispEdges" style="opacity:1" fill="#846060" d="M 53.5,179.5 C 55.5,179.5 57.5,179.5 59.5,179.5C 59.5,191.5 59.5,203.5 59.5,215.5C 57.5,215.5 55.5,215.5 53.5,215.5C 53.5,207.5 53.5,199.5 53.5,191.5C 53.5,187.5 53.5,183.5 53.5,179.5 Z"/></g>
<g><path shape-rendering="crispEdges" style="opacity:1" fill="#573f2f" d="M 59.5,179.5 C 61.5,179.5 63.5,179.5 65.5,179.5C 65.5,225.5 65.5,271.5 65.5,317.5C 63.5,317.5 61.5,317.5 59.5,317.5C 59.5,293.5 59.5,269.5 59.5,245.5C 57.5,245.5 55.5,245.5 53.5,245.5C 53.5,243.5 53.5,241.5 53.5,239.5C 53.5,231.5 53.5,223.5 53.5,215.5C 55.5,215.5 57.5,215.5 59.5,215.5C 59.5,203.5 59.5,191.5 59.5,179.5 Z"/></g>
<g><path shape-rendering="crispEdges" style="opacity:1" fill="#573f2f" d="M 125.5,179.5 C 127.5,179.5 129.5,179.5 131.5,179.5C 131.5,191.5 131.5,203.5 131.5,215.5C 133.5,215.5 135.5,215.5 137.5,215.5C 137.5,223.5 137.5,231.5 137.5,239.5C 137.5,241.5 137.5,243.5 137.5,245.5C 135.5,245.5 133.5,245.5 131.5,245.5C 131.5,269.5 131.5,293.5 131.5,317.5C 129.5,317.5 127.5,317.5 125.5,317.5C 125.5,271.5 125.5,225.5 125.5,179.5 Z"/></g>
<g><path shape-rendering="crispEdges" style="opacity:1" fill="#846060" d="M 131.5,179.5 C 133.5,179.5 135.5,179.5 137.5,179.5C 137.5,183.5 137.5,187.5 137.5,191.5C 137.5,199.5 137.5,207.5 137.5,215.5C 135.5,215.5 133.5,215.5 131.5,215.5C 131.5,203.5 131.5,191.5 131.5,179.5 Z"/></g>
<g><path shape-rendering="crispEdges" style="opacity:1" fill="#573f2f" d="M 47.5,191.5 C 47.5,197.5 47.5,203.5 47.5,209.5C 45.5,209.5 43.5,209.5 41.5,209.5C 41.5,203.5 41.5,197.5 41.5,191.5C 43.5,191.5 45.5,191.5 47.5,191.5 Z"/></g>
<g><path shape-rendering="crispEdges" style="opacity:1" fill="#b07e60" d="M 47.5,191.5 C 49.5,191.5 51.5,191.5 53.5,191.5C 53.5,199.5 53.5,207.5 53.5,215.5C 53.5,223.5 53.5,231.5 53.5,239.5C 51.5,239.5 49.5,239.5 47.5,239.5C 47.5,241.5 47.5,243.5 47.5,245.5C 47.5,249.5 47.5,253.5 47.5,257.5C 45.5,257.5 43.5,257.5 41.5,257.5C 41.5,259.5 41.5,261.5 41.5,263.5C 39.5,263.5 37.5,263.5 35.5,263.5C 35.5,265.5 35.5,267.5 35.5,269.5C 33.5,269.5 31.5,269.5 29.5,269.5C 29.5,265.5 29.5,261.5 29.5,257.5C 31.5,257.5 33.5,257.5 35.5,257.5C 35.5,253.5 35.5,249.5 35.5,245.5C 37.5,245.5 39.5,245.5 41.5,245.5C 41.5,233.5 41.5,221.5 41.5,209.5C 43.5,209.5 45.5,209.5 47.5,209.5C 47.5,203.5 47.5,197.5 47.5,191.5 Z"/></g>
<g><path shape-rendering="crispEdges" style="opacity:1" fill="#b07e60" d="M 137.5,191.5 C 139.5,191.5 141.5,191.5 143.5,191.5C 143.5,197.5 143.5,203.5 143.5,209.5C 145.5,209.5 147.5,209.5 149.5,209.5C 149.5,221.5 149.5,233.5 149.5,245.5C 151.5,245.5 153.5,245.5 155.5,245.5C 155.5,249.5 155.5,253.5 155.5,257.5C 157.5,257.5 159.5,257.5 161.5,257.5C 161.5,261.5 161.5,265.5 161.5,269.5C 159.5,269.5 157.5,269.5 155.5,269.5C 155.5,267.5 155.5,265.5 155.5,263.5C 153.5,263.5 151.5,263.5 149.5,263.5C 149.5,261.5 149.5,259.5 149.5,257.5C 147.5,257.5 145.5,257.5 143.5,257.5C 143.5,253.5 143.5,249.5 143.5,245.5C 143.5,243.5 143.5,241.5 143.5,239.5C 141.5,239.5 139.5,239.5 137.5,239.5C 137.5,231.5 137.5,223.5 137.5,215.5C 137.5,207.5 137.5,199.5 137.5,191.5 Z"/></g>
<g><path shape-rendering="crispEdges" style="opacity:1" fill="#573f2f" d="M 143.5,191.5 C 145.5,191.5 147.5,191.5 149.5,191.5C 149.5,197.5 149.5,203.5 149.5,209.5C 147.5,209.5 145.5,209.5 143.5,209.5C 143.5,203.5 143.5,197.5 143.5,191.5 Z"/></g>
<g><path shape-rendering="crispEdges" style="opacity:1" fill="#573f2f" d="M 41.5,209.5 C 41.5,221.5 41.5,233.5 41.5,245.5C 39.5,245.5 37.5,245.5 35.5,245.5C 35.5,233.5 35.5,221.5 35.5,209.5C 37.5,209.5 39.5,209.5 41.5,209.5 Z"/></g>
<g><path shape-rendering="crispEdges" style="opacity:1" fill="#573f2f" d="M 149.5,209.5 C 151.5,209.5 153.5,209.5 155.5,209.5C 155.5,221.5 155.5,233.5 155.5,245.5C 153.5,245.5 151.5,245.5 149.5,245.5C 149.5,233.5 149.5,221.5 149.5,209.5 Z"/></g>
<g><path shape-rendering="crispEdges" style="opacity:1" fill="#846060" d="M 53.5,239.5 C 53.5,241.5 53.5,243.5 53.5,245.5C 51.5,245.5 49.5,245.5 47.5,245.5C 47.5,243.5 47.5,241.5 47.5,239.5C 49.5,239.5 51.5,239.5 53.5,239.5 Z"/></g>
<g><path shape-rendering="crispEdges" style="opacity:1" fill="#846060" d="M 137.5,239.5 C 139.5,239.5 141.5,239.5 143.5,239.5C 143.5,241.5 143.5,243.5 143.5,245.5C 141.5,245.5 139.5,245.5 137.5,245.5C 137.5,243.5 137.5,241.5 137.5,239.5 Z"/></g>
<g><path shape-rendering="crispEdges" style="opacity:1" fill="#573f2f" d="M 35.5,245.5 C 35.5,249.5 35.5,253.5 35.5,257.5C 33.5,257.5 31.5,257.5 29.5,257.5C 29.5,253.5 29.5,249.5 29.5,245.5C 31.5,245.5 33.5,245.5 35.5,245.5 Z"/></g>
<g><path shape-rendering="crispEdges" style="opacity:1" fill="#573f2f" d="M 47.5,245.5 C 49.5,245.5 51.5,245.5 53.5,245.5C 53.5,255.5 53.5,265.5 53.5,275.5C 51.5,275.5 49.5,275.5 47.5,275.5C 47.5,277.5 47.5,279.5 47.5,281.5C 43.5,281.5 39.5,281.5 35.5,281.5C 35.5,279.5 35.5,277.5 35.5,275.5C 37.5,275.5 39.5,275.5 41.5,275.5C 41.5,273.5 41.5,271.5 41.5,269.5C 43.5,269.5 45.5,269.5 47.5,269.5C 47.5,265.5 47.5,261.5 47.5,257.5C 47.5,253.5 47.5,249.5 47.5,245.5 Z"/></g>
<g><path shape-rendering="crispEdges" style="opacity:1" fill="#573f2f" d="M 137.5,245.5 C 139.5,245.5 141.5,245.5 143.5,245.5C 143.5,249.5 143.5,253.5 143.5,257.5C 143.5,261.5 143.5,265.5 143.5,269.5C 145.5,269.5 147.5,269.5 149.5,269.5C 149.5,271.5 149.5,273.5 149.5,275.5C 151.5,275.5 153.5,275.5 155.5,275.5C 155.5,277.5 155.5,279.5 155.5,281.5C 151.5,281.5 147.5,281.5 143.5,281.5C 143.5,279.5 143.5,277.5 143.5,275.5C 141.5,275.5 139.5,275.5 137.5,275.5C 137.5,265.5 137.5,255.5 137.5,245.5 Z"/></g>
<g><path shape-rendering="crispEdges" style="opacity:1" fill="#573f2f" d="M 155.5,245.5 C 157.5,245.5 159.5,245.5 161.5,245.5C 161.5,249.5 161.5,253.5 161.5,257.5C 159.5,257.5 157.5,257.5 155.5,257.5C 155.5,253.5 155.5,249.5 155.5,245.5 Z"/></g>
<g><path shape-rendering="crispEdges" style="opacity:1" fill="#573f2f" d="M 29.5,257.5 C 29.5,261.5 29.5,265.5 29.5,269.5C 27.5,269.5 25.5,269.5 23.5,269.5C 23.5,265.5 23.5,261.5 23.5,257.5C 25.5,257.5 27.5,257.5 29.5,257.5 Z"/></g>
<g><path shape-rendering="crispEdges" style="opacity:1" fill="#846060" d="M 47.5,257.5 C 47.5,261.5 47.5,265.5 47.5,269.5C 45.5,269.5 43.5,269.5 41.5,269.5C 41.5,271.5 41.5,273.5 41.5,275.5C 39.5,275.5 37.5,275.5 35.5,275.5C 35.5,273.5 35.5,271.5 35.5,269.5C 35.5,267.5 35.5,265.5 35.5,263.5C 37.5,263.5 39.5,263.5 41.5,263.5C 41.5,261.5 41.5,259.5 41.5,257.5C 43.5,257.5 45.5,257.5 47.5,257.5 Z"/></g>
<g><path shape-rendering="crispEdges" style="opacity:1" fill="#846060" d="M 143.5,257.5 C 145.5,257.5 147.5,257.5 149.5,257.5C 149.5,259.5 149.5,261.5 149.5,263.5C 151.5,263.5 153.5,263.5 155.5,263.5C 155.5,265.5 155.5,267.5 155.5,269.5C 155.5,271.5 155.5,273.5 155.5,275.5C 153.5,275.5 151.5,275.5 149.5,275.5C 149.5,273.5 149.5,271.5 149.5,269.5C 147.5,269.5 145.5,269.5 143.5,269.5C 143.5,265.5 143.5,261.5 143.5,257.5 Z"/></g>
<g><path shape-rendering="crispEdges" style="opacity:1" fill="#573f2f" d="M 161.5,257.5 C 163.5,257.5 165.5,257.5 167.5,257.5C 167.5,261.5 167.5,265.5 167.5,269.5C 165.5,269.5 163.5,269.5 161.5,269.5C 161.5,265.5 161.5,261.5 161.5,257.5 Z"/></g>
<g><path shape-rendering="crispEdges" style="opacity:1" fill="#846060" d="M 107.5,269.5 C 99.5,269.5 91.5,269.5 83.5,269.5C 83.5,267.5 83.5,265.5 83.5,263.5C 91.5,263.5 99.5,263.5 107.5,263.5C 107.5,265.5 107.5,267.5 107.5,269.5 Z"/></g>
<g><path shape-rendering="crispEdges" style="opacity:1" fill="#573f2f" d="M 29.5,269.5 C 31.5,269.5 33.5,269.5 35.5,269.5C 35.5,271.5 35.5,273.5 35.5,275.5C 33.5,275.5 31.5,275.5 29.5,275.5C 29.5,273.5 29.5,271.5 29.5,269.5 Z"/></g>
<g><path shape-rendering="crispEdges" style="opacity:1" fill="#573f2f" d="M 83.5,269.5 C 91.5,269.5 99.5,269.5 107.5,269.5C 107.5,285.5 107.5,301.5 107.5,317.5C 107.5,335.5 107.5,353.5 107.5,371.5C 105.5,371.5 103.5,371.5 101.5,371.5C 101.5,339.5 101.5,307.5 101.5,275.5C 97.5,275.5 93.5,275.5 89.5,275.5C 89.5,307.5 89.5,339.5 89.5,371.5C 87.5,371.5 85.5,371.5 83.5,371.5C 83.5,353.5 83.5,335.5 83.5,317.5C 83.5,301.5 83.5,285.5 83.5,269.5 Z"/></g>
<g><path shape-rendering="crispEdges" style="opacity:1" fill="#573f2f" d="M 155.5,269.5 C 157.5,269.5 159.5,269.5 161.5,269.5C 161.5,271.5 161.5,273.5 161.5,275.5C 159.5,275.5 157.5,275.5 155.5,275.5C 155.5,273.5 155.5,271.5 155.5,269.5 Z"/></g>
<g><path shape-rendering="crispEdges" style="opacity:1" fill="#573f2f" d="M 65.5,317.5 C 67.5,317.5 69.5,317.5 71.5,317.5C 71.5,331.5 71.5,345.5 71.5,359.5C 67.5,359.5 63.5,359.5 59.5,359.5C 59.5,357.5 59.5,355.5 59.5,353.5C 61.5,353.5 63.5,353.5 65.5,353.5C 65.5,341.5 65.5,329.5 65.5,317.5 Z"/></g>
<g><path shape-rendering="crispEdges" style="opacity:1" fill="#846060" d="M 71.5,317.5 C 75.5,317.5 79.5,317.5 83.5,317.5C 83.5,335.5 83.5,353.5 83.5,371.5C 81.5,371.5 79.5,371.5 77.5,371.5C 77.5,367.5 77.5,363.5 77.5,359.5C 75.5,359.5 73.5,359.5 71.5,359.5C 71.5,345.5 71.5,331.5 71.5,317.5 Z"/></g>
<g><path shape-rendering="crispEdges" style="opacity:1" fill="#846060" d="M 107.5,317.5 C 111.5,317.5 115.5,317.5 119.5,317.5C 119.5,331.5 119.5,345.5 119.5,359.5C 117.5,359.5 115.5,359.5 113.5,359.5C 113.5,363.5 113.5,367.5 113.5,371.5C 111.5,371.5 109.5,371.5 107.5,371.5C 107.5,353.5 107.5,335.5 107.5,317.5 Z"/></g>
<g><path shape-rendering="crispEdges" style="opacity:1" fill="#573f2f" d="M 119.5,317.5 C 121.5,317.5 123.5,317.5 125.5,317.5C 125.5,329.5 125.5,341.5 125.5,353.5C 127.5,353.5 129.5,353.5 131.5,353.5C 131.5,355.5 131.5,357.5 131.5,359.5C 127.5,359.5 123.5,359.5 119.5,359.5C 119.5,345.5 119.5,331.5 119.5,317.5 Z"/></g>
<g><path shape-rendering="crispEdges" style="opacity:1" fill="#573f2f" d="M 59.5,359.5 C 59.5,361.5 59.5,363.5 59.5,365.5C 55.5,365.5 51.5,365.5 47.5,365.5C 47.5,363.5 47.5,361.5 47.5,359.5C 51.5,359.5 55.5,359.5 59.5,359.5 Z"/></g>
<g><path shape-rendering="crispEdges" style="opacity:1" fill="#b07e60" d="M 59.5,359.5 C 63.5,359.5 67.5,359.5 71.5,359.5C 73.5,359.5 75.5,359.5 77.5,359.5C 77.5,363.5 77.5,367.5 77.5,371.5C 73.5,371.5 69.5,371.5 65.5,371.5C 65.5,373.5 65.5,375.5 65.5,377.5C 59.5,377.5 53.5,377.5 47.5,377.5C 47.5,373.5 47.5,369.5 47.5,365.5C 51.5,365.5 55.5,365.5 59.5,365.5C 59.5,363.5 59.5,361.5 59.5,359.5 Z"/></g>
<g><path shape-rendering="crispEdges" style="opacity:1" fill="#b07e60" d="M 119.5,359.5 C 123.5,359.5 127.5,359.5 131.5,359.5C 131.5,361.5 131.5,363.5 131.5,365.5C 135.5,365.5 139.5,365.5 143.5,365.5C 143.5,369.5 143.5,373.5 143.5,377.5C 137.5,377.5 131.5,377.5 125.5,377.5C 125.5,375.5 125.5,373.5 125.5,371.5C 121.5,371.5 117.5,371.5 113.5,371.5C 113.5,367.5 113.5,363.5 113.5,359.5C 115.5,359.5 117.5,359.5 119.5,359.5 Z"/></g>
<g><path shape-rendering="crispEdges" style="opacity:1" fill="#573f2f" d="M 131.5,359.5 C 135.5,359.5 139.5,359.5 143.5,359.5C 143.5,361.5 143.5,363.5 143.5,365.5C 139.5,365.5 135.5,365.5 131.5,365.5C 131.5,363.5 131.5,361.5 131.5,359.5 Z"/></g>
<g><path shape-rendering="crispEdges" style="opacity:1" fill="#573f2f" d="M 47.5,365.5 C 47.5,369.5 47.5,373.5 47.5,377.5C 53.5,377.5 59.5,377.5 65.5,377.5C 69.5,377.5 73.5,377.5 77.5,377.5C 77.5,379.5 77.5,381.5 77.5,383.5C 65.5,383.5 53.5,383.5 41.5,383.5C 41.5,377.5 41.5,371.5 41.5,365.5C 43.5,365.5 45.5,365.5 47.5,365.5 Z"/></g>
<g><path shape-rendering="crispEdges" style="opacity:1" fill="#573f2f" d="M 143.5,365.5 C 145.5,365.5 147.5,365.5 149.5,365.5C 149.5,371.5 149.5,377.5 149.5,383.5C 137.5,383.5 125.5,383.5 113.5,383.5C 113.5,381.5 113.5,379.5 113.5,377.5C 117.5,377.5 121.5,377.5 125.5,377.5C 131.5,377.5 137.5,377.5 143.5,377.5C 143.5,373.5 143.5,369.5 143.5,365.5 Z"/></g>
<g><path shape-rendering="crispEdges" style="opacity:1" fill="#846060" d="M 77.5,371.5 C 77.5,373.5 77.5,375.5 77.5,377.5C 73.5,377.5 69.5,377.5 65.5,377.5C 65.5,375.5 65.5,373.5 65.5,371.5C 69.5,371.5 73.5,371.5 77.5,371.5 Z"/></g>
<g><path shape-rendering="crispEdges" style="opacity:1" fill="#573f2f" d="M 77.5,371.5 C 79.5,371.5 81.5,371.5 83.5,371.5C 83.5,373.5 83.5,375.5 83.5,377.5C 81.5,377.5 79.5,377.5 77.5,377.5C 77.5,375.5 77.5,373.5 77.5,371.5 Z"/></g>
<g><path shape-rendering="crispEdges" style="opacity:1" fill="#573f2f" d="M 107.5,371.5 C 109.5,371.5 111.5,371.5 113.5,371.5C 113.5,373.5 113.5,375.5 113.5,377.5C 111.5,377.5 109.5,377.5 107.5,377.5C 107.5,375.5 107.5,373.5 107.5,371.5 Z"/></g>
<g><path shape-rendering="crispEdges" style="opacity:1" fill="#846060" d="M 113.5,371.5 C 117.5,371.5 121.5,371.5 125.5,371.5C 125.5,373.5 125.5,375.5 125.5,377.5C 121.5,377.5 117.5,377.5 113.5,377.5C 113.5,375.5 113.5,373.5 113.5,371.5 Z"/></g>
</svg>
