<?xml version="1.0" encoding="UTF-8"?>
<!DOCTYPE svg PUBLIC "-//W3C//DTD SVG 1.1//EN" "http://www.w3.org/Graphics/SVG/1.1/DTD/svg11.dtd">
<svg xmlns="http://www.w3.org/2000/svg" version="1.1" width="144px" height="144px" style="shape-rendering:geometricPrecision; text-rendering:geometricPrecision; image-rendering:optimizeQuality; fill-rule:evenodd; clip-rule:evenodd" xmlns:xlink="http://www.w3.org/1999/xlink">
<g><path style="opacity:1" fill="#15bc97" d="M 83.5,17.5 C 87.5,17.5 91.5,17.5 95.5,17.5C 95.5,19.5 95.5,21.5 95.5,23.5C 97.5,23.5 99.5,23.5 101.5,23.5C 101.5,25.5 101.5,27.5 101.5,29.5C 103.5,29.5 105.5,29.5 107.5,29.5C 107.5,31.5 107.5,33.5 107.5,35.5C 109.5,35.5 111.5,35.5 113.5,35.5C 113.5,39.5 113.5,43.5 113.5,47.5C 111.5,47.5 109.5,47.5 107.5,47.5C 107.5,49.5 107.5,51.5 107.5,53.5C 105.5,53.5 103.5,53.5 101.5,53.5C 101.5,55.5 101.5,57.5 101.5,59.5C 99.5,59.5 97.5,59.5 95.5,59.5C 95.5,61.5 95.5,63.5 95.5,65.5C 91.5,65.5 87.5,65.5 83.5,65.5C 83.5,63.5 83.5,61.5 83.5,59.5C 85.5,59.5 87.5,59.5 89.5,59.5C 89.5,57.5 89.5,55.5 89.5,53.5C 91.5,53.5 93.5,53.5 95.5,53.5C 95.5,51.5 95.5,49.5 95.5,47.5C 77.5,47.5 59.5,47.5 41.5,47.5C 41.5,49.5 41.5,51.5 41.5,53.5C 39.5,53.5 37.5,53.5 35.5,53.5C 35.5,65.5 35.5,77.5 35.5,89.5C 31.5,89.5 27.5,89.5 23.5,89.5C 23.5,75.5 23.5,61.5 23.5,47.5C 25.5,47.5 27.5,47.5 29.5,47.5C 29.5,45.5 29.5,43.5 29.5,41.5C 31.5,41.5 33.5,41.5 35.5,41.5C 35.5,39.5 35.5,37.5 35.5,35.5C 55.5,35.5 75.5,35.5 95.5,35.5C 95.5,33.5 95.5,31.5 95.5,29.5C 93.5,29.5 91.5,29.5 89.5,29.5C 89.5,27.5 89.5,25.5 89.5,23.5C 87.5,23.5 85.5,23.5 83.5,23.5C 83.5,21.5 83.5,19.5 83.5,17.5 Z"/></g>
<g><path style="opacity:1" fill="#15bc97" d="M 113.5,53.5 C 117.5,53.5 121.5,53.5 125.5,53.5C 125.5,67.5 125.5,81.5 125.5,95.5C 123.5,95.5 121.5,95.5 119.5,95.5C 119.5,97.5 119.5,99.5 119.5,101.5C 117.5,101.5 115.5,101.5 113.5,101.5C 113.5,103.5 113.5,105.5 113.5,107.5C 93.5,107.5 73.5,107.5 53.5,107.5C 53.5,109.5 53.5,111.5 53.5,113.5C 55.5,113.5 57.5,113.5 59.5,113.5C 59.5,115.5 59.5,117.5 59.5,119.5C 61.5,119.5 63.5,119.5 65.5,119.5C 65.5,121.5 65.5,123.5 65.5,125.5C 61.5,125.5 57.5,125.5 53.5,125.5C 53.5,123.5 53.5,121.5 53.5,119.5C 51.5,119.5 49.5,119.5 47.5,119.5C 47.5,117.5 47.5,115.5 47.5,113.5C 45.5,113.5 43.5,113.5 41.5,113.5C 41.5,111.5 41.5,109.5 41.5,107.5C 39.5,107.5 37.5,107.5 35.5,107.5C 35.5,103.5 35.5,99.5 35.5,95.5C 37.5,95.5 39.5,95.5 41.5,95.5C 41.5,93.5 41.5,91.5 41.5,89.5C 43.5,89.5 45.5,89.5 47.5,89.5C 47.5,87.5 47.5,85.5 47.5,83.5C 49.5,83.5 51.5,83.5 53.5,83.5C 53.5,81.5 53.5,79.5 53.5,77.5C 57.5,77.5 61.5,77.5 65.5,77.5C 65.5,79.5 65.5,81.5 65.5,83.5C 63.5,83.5 61.5,83.5 59.5,83.5C 59.5,85.5 59.5,87.5 59.5,89.5C 57.5,89.5 55.5,89.5 53.5,89.5C 53.5,91.5 53.5,93.5 53.5,95.5C 71.5,95.5 89.5,95.5 107.5,95.5C 107.5,93.5 107.5,91.5 107.5,89.5C 109.5,89.5 111.5,89.5 113.5,89.5C 113.5,77.5 113.5,65.5 113.5,53.5 Z"/></g>
</svg>
