<?xml version="1.0" encoding="UTF-8"?>
<!DOCTYPE svg PUBLIC "-//W3C//DTD SVG 1.1//EN" "http://www.w3.org/Graphics/SVG/1.1/DTD/svg11.dtd">
<svg xmlns="http://www.w3.org/2000/svg" version="1.1" width="72px" height="72px" style="shape-rendering:geometricPrecision; text-rendering:geometricPrecision; image-rendering:optimizeQuality; fill-rule:evenodd; clip-rule:evenodd" xmlns:xlink="http://www.w3.org/1999/xlink">
<g><path style="opacity:1" fill="#15bc97" d="M 44.5,20.5 C 44.5,18.5 44.5,16.5 44.5,14.5C 45.5,14.5 46.5,14.5 47.5,14.5C 47.5,13.5 47.5,12.5 47.5,11.5C 48.5,11.5 49.5,11.5 50.5,11.5C 50.5,10.5 50.5,9.5 50.5,8.5C 52.5,8.5 54.5,8.5 56.5,8.5C 56.5,9.5 56.5,10.5 56.5,11.5C 57.5,11.5 58.5,11.5 59.5,11.5C 59.5,12.5 59.5,13.5 59.5,14.5C 60.5,14.5 61.5,14.5 62.5,14.5C 62.5,16.5 62.5,18.5 62.5,20.5C 61.5,20.5 60.5,20.5 59.5,20.5C 59.5,21.5 59.5,22.5 59.5,23.5C 58.5,23.5 57.5,23.5 56.5,23.5C 56.5,24.5 56.5,25.5 56.5,26.5C 54.5,26.5 52.5,26.5 50.5,26.5C 50.5,25.5 50.5,24.5 50.5,23.5C 49.5,23.5 48.5,23.5 47.5,23.5C 47.5,22.5 47.5,21.5 47.5,20.5C 46.5,20.5 45.5,20.5 44.5,20.5 Z M 50.5,14.5 C 52.5,14.5 54.5,14.5 56.5,14.5C 56.5,16.5 56.5,18.5 56.5,20.5C 54.5,20.5 52.5,20.5 50.5,20.5C 50.5,18.5 50.5,16.5 50.5,14.5 Z"/></g>
<g><path style="opacity:1" fill="#15bc97" d="M 44.5,20.5 C 44.5,21.5 44.5,22.5 44.5,23.5C 43.5,23.5 42.5,23.5 41.5,23.5C 41.5,24.5 41.5,25.5 41.5,26.5C 39.5,26.5 37.5,26.5 35.5,26.5C 35.5,27.5 35.5,28.5 35.5,29.5C 33.5,29.5 31.5,29.5 29.5,29.5C 29.5,30.5 29.5,31.5 29.5,32.5C 27.5,32.5 25.5,32.5 23.5,32.5C 23.5,31.5 23.5,30.5 23.5,29.5C 24.5,29.5 25.5,29.5 26.5,29.5C 26.5,28.5 26.5,27.5 26.5,26.5C 28.5,26.5 30.5,26.5 32.5,26.5C 32.5,25.5 32.5,24.5 32.5,23.5C 34.5,23.5 36.5,23.5 38.5,23.5C 38.5,22.5 38.5,21.5 38.5,20.5C 40.5,20.5 42.5,20.5 44.5,20.5 Z"/></g>
<g><path style="opacity:1" fill="#15bc97" d="M 23.5,32.5 C 23.5,34.5 23.5,36.5 23.5,38.5C 22.5,38.5 21.5,38.5 20.5,38.5C 20.5,39.5 20.5,40.5 20.5,41.5C 19.5,41.5 18.5,41.5 17.5,41.5C 17.5,42.5 17.5,43.5 17.5,44.5C 15.5,44.5 13.5,44.5 11.5,44.5C 11.5,43.5 11.5,42.5 11.5,41.5C 10.5,41.5 9.5,41.5 8.5,41.5C 8.5,40.5 8.5,39.5 8.5,38.5C 7.5,38.5 6.5,38.5 5.5,38.5C 5.5,36.5 5.5,34.5 5.5,32.5C 6.5,32.5 7.5,32.5 8.5,32.5C 8.5,31.5 8.5,30.5 8.5,29.5C 9.5,29.5 10.5,29.5 11.5,29.5C 11.5,28.5 11.5,27.5 11.5,26.5C 13.5,26.5 15.5,26.5 17.5,26.5C 17.5,27.5 17.5,28.5 17.5,29.5C 18.5,29.5 19.5,29.5 20.5,29.5C 20.5,30.5 20.5,31.5 20.5,32.5C 21.5,32.5 22.5,32.5 23.5,32.5 Z M 11.5,32.5 C 13.5,32.5 15.5,32.5 17.5,32.5C 17.5,34.5 17.5,36.5 17.5,38.5C 15.5,38.5 13.5,38.5 11.5,38.5C 11.5,36.5 11.5,34.5 11.5,32.5 Z"/></g>
<g><path style="opacity:1" fill="#15bc97" d="M 23.5,38.5 C 25.5,38.5 27.5,38.5 29.5,38.5C 29.5,39.5 29.5,40.5 29.5,41.5C 31.5,41.5 33.5,41.5 35.5,41.5C 35.5,42.5 35.5,43.5 35.5,44.5C 37.5,44.5 39.5,44.5 41.5,44.5C 41.5,45.5 41.5,46.5 41.5,47.5C 42.5,47.5 43.5,47.5 44.5,47.5C 44.5,48.5 44.5,49.5 44.5,50.5C 42.5,50.5 40.5,50.5 38.5,50.5C 38.5,49.5 38.5,48.5 38.5,47.5C 36.5,47.5 34.5,47.5 32.5,47.5C 32.5,46.5 32.5,45.5 32.5,44.5C 30.5,44.5 28.5,44.5 26.5,44.5C 26.5,43.5 26.5,42.5 26.5,41.5C 25.5,41.5 24.5,41.5 23.5,41.5C 23.5,40.5 23.5,39.5 23.5,38.5 Z"/></g>
<g><path style="opacity:1" fill="#15bc97" d="M 44.5,50.5 C 45.5,50.5 46.5,50.5 47.5,50.5C 47.5,49.5 47.5,48.5 47.5,47.5C 48.5,47.5 49.5,47.5 50.5,47.5C 50.5,46.5 50.5,45.5 50.5,44.5C 52.5,44.5 54.5,44.5 56.5,44.5C 56.5,45.5 56.5,46.5 56.5,47.5C 57.5,47.5 58.5,47.5 59.5,47.5C 59.5,48.5 59.5,49.5 59.5,50.5C 60.5,50.5 61.5,50.5 62.5,50.5C 62.5,52.5 62.5,54.5 62.5,56.5C 61.5,56.5 60.5,56.5 59.5,56.5C 59.5,57.5 59.5,58.5 59.5,59.5C 58.5,59.5 57.5,59.5 56.5,59.5C 56.5,60.5 56.5,61.5 56.5,62.5C 54.5,62.5 52.5,62.5 50.5,62.5C 50.5,61.5 50.5,60.5 50.5,59.5C 49.5,59.5 48.5,59.5 47.5,59.5C 47.5,58.5 47.5,57.5 47.5,56.5C 46.5,56.5 45.5,56.5 44.5,56.5C 44.5,54.5 44.5,52.5 44.5,50.5 Z M 50.5,50.5 C 52.5,50.5 54.5,50.5 56.5,50.5C 56.5,52.5 56.5,54.5 56.5,56.5C 54.5,56.5 52.5,56.5 50.5,56.5C 50.5,54.5 50.5,52.5 50.5,50.5 Z"/></g>
</svg>
